<?xml version="1.0" encoding="utf-8"?>
<!-- Generator: Adobe Illustrator 22.0.1, SVG Export Plug-In . SVG Version: 6.00 Build 0)  -->
<svg version="1.1" id="Layer_1" xmlns="http://www.w3.org/2000/svg" xmlns:xlink="http://www.w3.org/1999/xlink" x="0px" y="0px"
	 viewBox="0 0 650 500" style="enable-background:new 0 0 650 500;" xml:space="preserve">
<style type="text/css">
	.st0{fill:#D3D8DF;}
	.st1{fill:#A3ADBC;}
	.st2{fill:#DAF0FA;}
	.st3{fill:#B0E0F4;}
	.st4{opacity:0.9;fill:#B0E0F4;enable-background:new    ;}
	.st5{fill:#BAE4F6;}
	.st6{fill:#FFFFFF;}
	.st7{opacity:0.9;fill:#BCE5F6;enable-background:new    ;}
	.st8{opacity:0.9;fill:#BAE4F6;enable-background:new    ;}
	.st9{opacity:0.9;fill:#D4EEF9;enable-background:new    ;}
	.st10{fill:#C3E7F7;}
	.st11{opacity:0.9;fill:#CDEBF8;enable-background:new    ;}
	.st12{fill:#BFE6F6;}
	.st13{fill:#D2EEF9;}
	.st14{fill:none;}
	.st15{font-family:'Lato-Light';}
	.st16{font-size:24.9704px;}
	.st17{fill:#008DB0;}
	.st18{font-family:'Lato-Bold';}
	.st19{font-size:34.9585px;}
	.st20{fill:#B2C8D7;}
	.st21{fill:#DBE5EC;}
	.st22{fill:#C5D6E1;}
	.st23{fill:#E5ECF1;}
	.st24{fill:#D6E1E9;}
	.st25{opacity:0.9;fill:#B2C8D7;enable-background:new    ;}
	.st26{opacity:0.9;fill:#BED0DD;enable-background:new    ;}
	.st27{opacity:0.9;fill:#BCCFDC;enable-background:new    ;}
	.st28{opacity:0.9;fill:#D6E1E9;enable-background:new    ;}
	.st29{opacity:0.9;fill:#CFDDE6;enable-background:new    ;}
	.st30{fill:#C1D3DF;}
	.st31{fill:#BCCFDC;}
	.st32{fill:#D4E0E9;}
	.st33{fill:#306B93;}
	.st34{font-family:'Lato-Regular';}
	.st35{font-size:22.4733px;}
	.st36{fill:#D3EAEA;}
	.st37{fill:#A3D2D3;}
	.st38{opacity:0.9;fill:#A3D2D3;enable-background:new    ;}
	.st39{opacity:0.9;fill:#CDE6E7;enable-background:new    ;}
	.st40{opacity:0.9;fill:#C5E2E3;enable-background:new    ;}
	.st41{fill:#B4DADB;}
	.st42{fill:#AED7D9;}
	.st43{fill:#CBE5E6;}
	.st44{fill:#CDE6E7;}
	.st45{opacity:0.9;fill:#B0D8DA;enable-background:new    ;}
	.st46{opacity:0.9;fill:#AED7D9;enable-background:new    ;}
	.st47{fill:#B9DDDE;}
	.st48{fill:#DFEFF0;}
	.st49{fill:#058488;}
	.st50{fill:#D3F5EA;}
	.st51{fill:#A3E9D3;}
	.st52{fill:#CBF3E6;}
	.st53{opacity:0.9;fill:#A3E9D3;enable-background:new    ;}
	.st54{opacity:0.9;fill:#B0ECDA;enable-background:new    ;}
	.st55{fill:#B9EEDE;}
	.st56{fill:#DFF7F0;}
	.st57{fill:#CDF3E7;}
	.st58{opacity:0.9;fill:#AEECD9;enable-background:new    ;}
	.st59{opacity:0.9;fill:#CDF3E7;enable-background:new    ;}
	.st60{opacity:0.9;fill:#C5F1E3;enable-background:new    ;}
	.st61{fill:#B4EDDB;}
	.st62{fill:#AEECD9;}
	.st63{fill:#00AD99;}
</style>
<g id="Layer_2_1_">
</g>
<g>
	<path class="st0" d="M341.1,195.7c0.3,1,0.7,2,1,3.1c2,4.8,3.7,9.6,5,14.6C345.7,207.4,343.7,201.5,341.1,195.7z"/>
	<path class="st1" d="M341.1,195.7c0.3,1,0.7,2,1,3.1c2,4.8,3.7,9.6,5,14.6C345.7,207.4,343.7,201.5,341.1,195.7z"/>
	<path class="st2" d="M315.3,150.7c-0.3,1.5-0.6,3-1,4.4c-1.1,7.9-3.1,15.7-5.9,23.2c0.4-0.8,0.7-1.5,1.1-2.3
		c0.3-0.8,0.6-1.6,0.9-2.4C312.9,166.2,314.6,158.5,315.3,150.7z"/>
	<path class="st2" d="M314.9,126.2c0.3,2.4,0.3,4.7,0.4,7.1c0.1,1.1,0.1,2.3,0.1,3.4s0.1,2.3,0,3.4c-0.1,2.3-0.1,4.5-0.3,6.8
		c-0.1,1.2-0.2,2.3-0.2,3.5c-0.2,1.6-0.4,3.3-0.6,4.9c0.3-1.4,0.7-2.9,1-4.4C316.1,142.6,316,134.3,314.9,126.2z"/>
	<path class="st2" d="M308.9,93.3c0.3,1,0.7,2,1,3.1c2,4.8,3.7,9.6,5,14.6C313.5,104.9,311.5,99,308.9,93.3z"/>
	<path class="st2" d="M315.3,150.7c-0.8,7.8-2.4,15.5-4.9,22.9c7.7-19.2,9.6-41.5,4.5-62.7c-1.3-5-3.1-9.9-5-14.6
		c2.7,8.4,5.1,17.8,6.1,27.3C317.1,133.1,316.9,142.6,315.3,150.7z"/>
	<path class="st2" d="M310.5,173.7c-0.3,0.8-0.6,1.6-0.9,2.4c-0.4,0.8-0.7,1.5-1.1,2.3l-0.9,2.4l-1,2.3c0.6-1.1,1.2-2.3,1.8-3.5
		l1.1-2.9C309.8,175.7,310.1,174.7,310.5,173.7z"/>
	<path class="st2" d="M308.5,178.3c-0.6,1.2-1.1,2.4-1.7,3.5c-0.8,1.7-1.5,3.4-2.4,5.1c0.8-1.3,1.5-2.6,2.2-4l1-2.3L308.5,178.3z"/>
	<path class="st2" d="M314.9,150.3c-0.2,1.7-0.4,3.4-0.6,5.1c0-0.1,0-0.1,0.1-0.2C314.5,153.5,314.7,151.9,314.9,150.3z"/>
	<path class="st2" d="M314.3,155.2c0,0.1,0,0.2-0.1,0.2c-0.7,4.5-1.6,9-2.9,13.4c-0.6,2.2-1.4,4.4-2.1,6.6c-0.4,1.1-0.8,2.2-1.2,3.2
		c-0.4,1.1-0.8,2.2-1.3,3.2c0.6-1.2,1.1-2.4,1.7-3.5C311.3,170.9,313.3,163.1,314.3,155.2z"/>
	<path class="st2" d="M314.9,126.2c-0.6-4.9-1.7-9.7-2.9-14.4c1.8,7.1,2.9,14.3,3.3,21.5C315.2,130.9,315.2,128.5,314.9,126.2z"/>
	<path class="st3" d="M315.4,150.5c0,0.1,0,0.1,0,0.2c0,0.2,0,0.3,0,0.5C315.3,150.9,315.3,150.7,315.4,150.5z"/>
	<path class="st3" d="M315.2,131.9c0.2,2.3,0.2,4.5,0.3,6.8c0,1.1,0,2.2-0.1,3.4c0,1.1,0,2.2-0.1,3.4c0,0.6-0.1,1.2-0.1,1.8
		c0,0.4,0.1,0.7,0.1,1.1c0.2-1.7,0.2-1.7,0.4-3.3c-0.1,2-0.2,3.9-0.3,5.6c0.8-8.1,0.6-16.3-0.5-24.4
		C315.1,128.1,315.1,130,315.2,131.9z"/>
	<path class="st3" d="M308.9,93.3c0.3,1,0.7,2,1,3.1c2,4.8,3.7,9.6,5,14.6C313.5,104.9,311.5,99,308.9,93.3z"/>
	<path class="st3" d="M308.5,178.3c-0.4,0.9-0.8,1.8-1.2,2.7c-0.2,0.5-0.4,0.9-0.6,1.3c-0.3,0.8-0.7,1.6-1,2.4
		c0.3-0.6,0.6-1.2,0.9-1.8l1-2.3L308.5,178.3z"/>
	<path class="st4" d="M314.9,110.9c-1.3-5-3.1-9.9-5-14.6c2.7,8.4,5,17.7,6.1,27.2c1,9.4,0.9,18.9-0.6,27c-0.1,1.3-0.1,2.7-0.2,4.1
		c-0.1-1,0-2.2,0.1-3.4c0,0.2-0.1,0.5-0.1,0.7c-0.8,7.4-2.4,14.7-4.7,21.8C318.2,154.5,320.1,132.1,314.9,110.9z"/>
	<path class="st3" d="M310.5,173.7c2.3-7.1,3.9-14.4,4.7-21.8c-0.4,3.2-1.1,6.6-1.9,9.6c-1.1,5.7-2.8,11.4-4.8,16.9
		c0.4-0.8,0.7-1.5,1.1-2.3C309.8,175.2,310.1,174.5,310.5,173.7z"/>
	<path class="st3" d="M315.2,131.9c-0.1-1.9-0.1-3.8-0.3-5.7l-0.4-2.8c-0.1-0.9-0.3-1.8-0.5-2.8l-0.5-2.7l-0.6-2.7
		c0,0.1,0,0.1,0,0.2C314.1,120.8,314.9,126.3,315.2,131.9z"/>
	<path class="st3" d="M313.4,115.5c-0.2-0.6-0.4-1.1-0.8-2.2c0.1,0.6,0.1,1.3,0.2,1.9l0.6,2.7l0.5,2.7c0.2,0.9,0.4,1.8,0.5,2.8
		l0.4,2.8l-0.2-2.7c-0.1-0.9-0.2-1.8-0.4-2.7l-0.4-2.7C313.8,117.3,313.6,116.4,313.4,115.5z"/>
	<path class="st3" d="M313.3,161.5L313.3,161.5c-1.4,6.7-3.4,13.2-6.1,19.5c0.4-0.9,0.8-1.8,1.2-2.7
		C310.5,172.8,312.2,167.2,313.3,161.5z"/>
	<path class="st3" d="M310.5,173.7c-0.3,0.8-0.6,1.6-0.9,2.4c-0.4,0.8-0.7,1.5-1.1,2.3l-0.9,2.4l-1,2.3c0.6-1.1,1.2-2.3,1.8-3.5
		l1.1-2.9C309.8,175.7,310.1,174.7,310.5,173.7z"/>
	<g>
		<path class="st2" d="M214.9,28.6c-3,0.8-4.1,1.8-3.7,2.7h4l4,0.2c1.4,0,2.7,0.2,4,0.3c1.3,0.2,2.7,0.2,4,0.5
			c5.4,0.7,10.7,1.9,15.9,3.5c10.4,3.1,20.3,7.9,29.3,14.1C256.3,37.5,236.4,29.7,214.9,28.6z"/>
		<path class="st5" d="M213.3,28.5c-3,0.8-4,1.9-3.5,2.7c5.5-0.1,11,0.1,16.5,0.8s10.9,1.9,16.2,3.4c10.6,3.2,20.8,7.9,29.9,14.3
			C255.9,37.2,235.4,29.3,213.3,28.5z"/>
		<ellipse class="st6" cx="209.1" cy="139.3" rx="109.9" ry="109.9"/>
		<path class="st2" d="M300.7,204.7c-3,3.5-7.6,8.9-13.6,14.5s-13.3,11.3-21.1,15.6C279.9,227.3,291.8,216.7,300.7,204.7z"/>
		<path class="st2" d="M237.1,243.6c1.1-0.3,2.3-0.7,3.5-1s2.3-0.8,3.4-1.1c2.3-0.7,4.6-1.7,6.9-2.5c4.5-1.9,9.1-4,13.5-6.6
			c8.8-5,17-11.3,24.1-18.5l1.3-1.4l1.3-1.4c0.8-0.9,1.7-1.9,2.5-2.8c1.6-2,3.2-3.9,4.6-5.9c1.5-2,2.8-4.1,4.1-6.1
			c0.6-1,1.2-2.1,1.8-3.2l0.9-1.6l0.8-1.6c0.5-1.1,1.1-2.1,1.6-3.2c0.5-1.1,0.9-2.2,1.4-3.3c0.2-0.5,0.5-1.1,0.7-1.6
			c0.2-0.5,0.4-1.1,0.6-1.6c0.4-1.1,0.8-2.2,1.2-3.2c1.4-4.4,2.5-8.6,3.2-12.8c-1.6,5-3.7,10.3-6.2,15.6
			c-3.1,7.9-7.3,15.4-12.2,22.4s-10.7,13.3-17.2,18.8l-1.4,1.3l-1.5,1.2c-1,0.8-2,1.6-3,2.4l-3.1,2.2c-1,0.8-2.1,1.4-3.2,2.1
			c-1.1,0.7-2.2,1.4-3.3,2s-2.2,1.3-3.3,1.9c-2.3,1.2-4.6,2.4-6.9,3.4c-4,1.8-8.2,3.3-12.4,4.7c-4.2,1.2-8.5,2.3-12.8,3
			c0.5,0.5,1.7,0.8,3.6,0.9c6.9-1.4,13.7-3.6,20.2-6.3C247,241,242.3,242.4,237.1,243.6z"/>
		<path class="st2" d="M306.6,183c-3.1,7.2-7,14.1-11.7,20.4c-4.7,6.3-10,12.2-16,17.3c6.4-5.6,12.3-11.9,17.2-18.8
			c4.9-6.9,9.1-14.4,12.2-22.4C307.8,180.7,307.2,181.9,306.6,183z"/>
		<path class="st2" d="M285.1,220.4c-5.3,4.7-10.7,8.4-16.3,11.5c-5.5,3.1-11.2,5.5-17.1,7.6c-6.5,2.7-13.3,4.9-20.2,6.3
			c1.4,0,3.1-0.1,5.2-0.3c8.9-1.9,17.6-4.8,25.7-8.9c2-1.1,4.1-2.1,6-3.3c1-0.6,2-1.2,3-1.8c1-0.7,1.9-1.3,2.9-2l1.4-1l1.4-1.1
			c0.9-0.7,1.8-1.4,2.8-2.2c0.9-0.8,1.8-1.5,2.7-2.3l1.3-1.2L285.1,220.4z"/>
		<path class="st2" d="M253.1,237.2c2.4-1,4.6-2.2,6.9-3.4c1.1-0.6,2.2-1.3,3.3-1.9c1.1-0.6,2.2-1.3,3.3-2c1.1-0.7,2.2-1.4,3.2-2.1
			l3.1-2.2c1-0.8,2-1.6,3-2.4l1.5-1.2l1.4-1.3c-3.9,3.3-8,6.4-12.3,9.2c-1.1,0.7-2.2,1.4-3.3,2s-2.2,1.3-3.3,1.9
			C257.7,235,255.4,236.2,253.1,237.2z"/>
		<path class="st2" d="M309.9,96.3c-8-18.7-21.4-35-38.1-46.4c3.7,2.7,7.2,5.8,10.5,9l2.4,2.5l1.2,1.2l1.2,1.3l2.3,2.6l2.2,2.7
			l1.1,1.3l1,1.4l2.1,2.8l1.9,2.9l1,1.4l0.9,1.5c0.6,1,1.2,2,1.8,3c0.6,1,1.1,2.1,1.7,3.1c0.6,1,1.1,2.1,1.6,3.1
			c0.5,1.1,1,2.1,1.5,3.2c2.4,5.2,4.3,10.7,5.8,16.3c0.3,1.4,0.8,2.8,1,4.2l0.8,4.2c0.4,2.9,0.9,5.7,1.1,8.6
			c1.1,8.1,1.3,16.4,0.4,24.5c1.6-8.1,1.7-17.6,0.7-27.1C315,114.2,312.6,104.8,309.9,96.3z"/>
		<path class="st2" d="M310.5,173.7c-0.3,1-0.6,2-1,3l-1.1,2.9c2.6-5.2,4.6-10.5,6.2-15.6c-0.6,4.2-1.8,8.5-3.2,12.8
			c-0.4,1.1-0.8,2.2-1.2,3.2c-0.2,0.5-0.4,1.1-0.6,1.6c-0.2,0.5-0.5,1.1-0.7,1.6c-0.5,1.1-0.9,2.2-1.4,3.3c-0.5,1.1-1.1,2.1-1.6,3.2
			l-0.8,1.6l-0.9,1.6c-0.6,1.1-1.2,2.1-1.8,3.2c-1.3,2.1-2.6,4.2-4.1,6.1c-1.4,2-3,4-4.6,5.9c-0.8,1-1.7,1.9-2.5,2.8l-1.3,1.4
			l-1.3,1.4c-7.1,7.3-15.3,13.5-24.1,18.5c-4.4,2.5-8.9,4.6-13.5,6.6c-2.3,0.9-4.6,1.8-6.9,2.5c-1.2,0.4-2.3,0.8-3.4,1.1
			c-1.2,0.3-2.3,0.7-3.5,1c5.2-1.1,10-2.6,14.6-4.1c12.1-5.1,23.2-12.5,32.7-21.4c9.5-9,17.3-19.6,23.1-31.3
			c5.7-11.7,9.3-24.4,10.5-37.3c1.3-12.9,0.1-26-3.1-38.5C320.1,132.1,318.2,154.5,310.5,173.7z"/>
		<path class="st2" d="M227.7,244.7c1.1-0.2,2.2-0.3,3.3-0.5l3.2-0.7l1.6-0.3l1.6-0.4l3.2-0.9c4.2-1.3,8.4-2.8,12.4-4.6
			c2.4-1,4.6-2.2,6.9-3.4c1.1-0.6,2.2-1.3,3.3-1.9c1.1-0.6,2.2-1.3,3.3-2c4.3-2.7,8.5-5.8,12.3-9.2c5.9-5.2,11.3-11,16-17.3
			c4.6-6.4,8.5-13.2,11.7-20.4c-0.7,1.3-1.4,2.7-2.2,4c-5.2,10.4-12.4,20.2-21.5,28.7c-10.2,9.9-21,16.7-32.4,21.7
			c-11.5,4.8-23.7,7.7-37.5,8c-5.8,0.3-12.8,0-20-1.1c-7.2-1-14.6-2.9-21.3-5.1c4.4,1.7,8.9,3.2,13.5,4.3c2.3,0.6,4.6,1,7,1.5
			c1.2,0.2,2.4,0.3,3.5,0.5c1.2,0.2,2.4,0.4,3.5,0.4c9.5,0.9,19.2,0.7,28.6-1C227.8,244.8,227.7,244.7,227.7,244.7z"/>
		<path class="st2" d="M112.5,192.2c7.7,13.7,18.3,25.6,31,34.9c12.7,9.2,27.4,15.6,42.8,18.8c-15-4-28.8-11.1-40.5-20.8
			c-1.5-1.1-2.9-2.2-4.3-3.4s-2.7-2.4-4.1-3.5c-1.2-0.8-2.3-1.7-3.4-2.5s-2-1.7-2.7-2.6c-1.3-1.4-2.5-2.9-3.6-4.3
			c-1.2-1.4-2.2-2.9-3.3-4.3c-9.8-12-17-25.6-21.8-39.7l0.4,1.8l0.5,1.8l0.9,3.5l1.1,3.5l0.6,1.7l0.6,1.7l1.3,3.4l1.4,3.4
			c0.5,1.1,1,2.2,1.5,3.3C111.4,190,111.9,191.1,112.5,192.2z"/>
		<path class="st2" d="M150.5,228.4c-1.6-1.1-3.1-2.4-4.6-3.7s-3.1-2.6-4.6-4c-0.4-0.3-0.8-0.6-1.3-0.9c0.9,0.9,1.9,1.8,2.9,2.6
			s1.9,1.7,3,2.6C147.3,226.1,148.9,227.3,150.5,228.4z"/>
		<path class="st2" d="M100.4,150.1c0.5,4.9,1.1,9.9,2.2,14.7c4.8,14.1,12.1,27.7,21.8,39.7c-3.5-5-6.5-10-9.2-15.3
			c-2.7-5.4-5.1-11.1-7.1-17.5c-1.2-3.5-2.6-5.9-3.6-8.4c-0.6-1.2-1.1-2.4-1.5-3.7c-0.4-1.3-0.8-2.8-1-4.5
			c-1.3-11.9-0.4-25.5,2.8-38.6c3.2-13.1,8.6-25.4,14.5-36.1c4.4-7.3,10.3-14.4,17-20.9c6.8-6.4,14.6-12.3,23-16.8
			c4.1-2.4,8.5-4.3,12.7-6c2.2-0.8,4.3-1.7,6.5-2.3c1.1-0.4,2.2-0.7,3.2-1c1.1-0.3,2.2-0.6,3.2-0.9c8.6-2.3,16.8-3.5,24.2-4
			c-18.2,0.3-35.2,4.9-49.7,12.5s-26.6,18-35.8,29.8c-9.3,11.8-15.8,25-19.6,38.5C100.3,122.7,99.2,136.6,100.4,150.1z"/>
		<path class="st2" d="M140,219.8c-0.8-0.6-1.7-1.1-2.6-1.7c1.4,1.2,2.7,2.4,4.1,3.5s2.8,2.3,4.3,3.4c-1-0.8-2-1.7-3-2.6
			C141.8,221.6,140.9,220.7,140,219.8z"/>
		<path class="st2" d="M209.4,247.9c0.9,0,1.7,0,2.6,0c-8.2-0.1-16.4-1.2-24.3-3c-7.9-1.9-15.6-4.7-22.9-8.2
			c-0.5-0.2-1.1-0.4-1.6-0.6c-4.1-1.8-8.5-4.4-12.8-7.7c-1.6-1-3.1-2.2-4.7-3.3c11.7,9.6,25.5,16.8,40.5,20.8
			c8,1.7,16.3,2.4,24.6,2.2C210.3,248,209.9,248,209.4,247.9z"/>
		<path class="st2" d="M309.9,96.3c-0.3-1-0.7-2.1-1-3.1c2.6,5.7,4.6,11.6,6,17.7c3.3,12.5,4.4,25.6,3.1,38.5s-4.8,25.6-10.5,37.3
			S293.9,209,284.4,218s-20.6,16.3-32.7,21.4c5.9-2,11.6-4.5,17.1-7.6c5.5-3.1,11-6.8,16.3-11.5l-1.3,1.2l-1.3,1.2
			c-0.9,0.8-1.8,1.5-2.7,2.3c-0.9,0.7-1.9,1.4-2.8,2.2l-1.4,1.1l-1.4,1c-1,0.7-1.9,1.3-2.9,2c-1,0.6-2,1.2-3,1.8
			c-1.9,1.2-4,2.2-6,3.3c-8.2,4.1-16.8,7-25.7,8.9c1.2-0.2,2.5-0.4,3.9-0.7c1.1-0.2,2.2-0.6,3.3-0.9l3.3-1l3.3-1.1l1.6-0.6l1.6-0.6
			l3.2-1.3c1.1-0.4,2.1-0.9,3.1-1.4c2.1-0.9,4.1-2,6.1-3.1c7.8-4.4,15.2-10.1,21.1-15.6c6-5.6,10.5-11,13.6-14.5
			c-8.9,12.1-20.8,22.6-34.7,30.1c-4.5,2.5-9,4.6-13.4,6.3c-1.1,0.4-2.2,0.8-3.2,1.1c-1.1,0.3-2.1,0.7-3.1,1c-1,0.3-2,0.5-3,0.8
			c-0.5,0.1-1,0.2-1.4,0.4c-0.5,0.1-0.9,0.2-1.4,0.3c-8.7,2.1-17.8,3.3-26.8,3.2l-3,0.1c6.1,0.6,12.5,0.5,19.1-0.4
			c6.7-0.9,13.6-2.5,20.8-5c-21.3,8-44.1,8.6-64.6,3.2c-15.4-3.1-30.1-9.6-42.8-18.8s-23.3-21.2-31-34.9
			c5.8,10.9,13.1,20.7,21.8,29.1c8.8,8.3,18.8,15.3,30,20.4c22.2,10.4,48.4,13,73.4,6.7c5.2-1.2,10.5-2.9,15.7-5.1
			c5.2-2.2,10.3-5,15.1-8c6.6-4.4,13.1-9.1,19-14.4c6-5.3,11.4-11.3,15.7-18.1c8.4-13.3,14.2-28.4,16.7-44.2s1.9-32.2-2.2-47.8
			c-4.1-15.6-11.5-30.5-21.6-43.2c-10.1-12.7-22.9-23.3-37.3-30.9c-4.8-2.5-10.6-4.5-16.7-6c-6.2-1.4-12.8-2.1-19.4-2.3
			c-1.8-0.1-3.3,0.1-4.7,0.2c-1.4,0.2-2.5,0.3-3.5,0.6c21.5,1.1,41.4,8.9,57.6,21.1C288.5,61.3,301.9,77.6,309.9,96.3z"/>
		<path class="st2" d="M306.2,92.9c-0.5-1.1-1-2.1-1.5-3.2c-0.5-1.1-1-2.1-1.6-3.1c-0.6-1-1.1-2.1-1.7-3.1c-0.6-1-1.2-2-1.8-3
			l-0.9-1.5l-1-1.4l-1.9-2.9l-2.1-2.8l-1-1.4l-1.1-1.3l-2.2-2.7l-2.3-2.6l-1.2-1.3l-1.2-1.2l-2.4-2.5c-3.4-3.1-6.8-6.2-10.5-9
			c-9-6.2-18.9-10.9-29.3-14.1c-5.2-1.5-10.5-2.8-15.9-3.5c-1.3-0.2-2.7-0.3-4-0.5c-1.3-0.1-2.7-0.3-4-0.3l-4-0.2h-4
			c0.3,0.6,1.4,1.2,3.3,1.5c3.4,1.5,9.8,1.7,17.1,2.7s15.5,2.8,22.1,5.7c7.1,3.2,14,7.2,20.3,12s12.1,10.3,17.2,16.4
			c10.3,12.2,17.6,26.8,21.6,42c1.3,4.7,2.3,9.5,2.9,14.4c-0.2-2.9-0.6-5.7-1.1-8.6l-0.8-4.2c-0.3-1.4-0.7-2.8-1-4.2
			C310.5,103.6,308.6,98.1,306.2,92.9z"/>
		<path class="st3" d="M253.1,237.2c2.4-1,4.6-2.2,6.9-3.4c1.1-0.6,2.2-1.3,3.3-1.9c1.1-0.6,2.2-1.3,3.3-2c1.1-0.7,2.2-1.4,3.2-2.1
			l3.1-2.2c1-0.8,2-1.6,3-2.4l1.5-1.2l1.4-1.3c-3.9,3.3-8,6.4-12.3,9.2c-1.1,0.7-2.2,1.4-3.3,2s-2.2,1.3-3.3,1.9
			C257.7,235,255.4,236.2,253.1,237.2z"/>
		<path class="st4" d="M227.7,244.7c1.1-0.2,2.2-0.3,3.3-0.5l3.2-0.7l1.6-0.3l1.6-0.4l3.2-0.9c4.2-1.3,8.4-2.8,12.4-4.6
			c2.4-1,4.6-2.2,6.9-3.4c1.1-0.6,2.2-1.3,3.3-1.9c1.1-0.6,2.2-1.3,3.3-2c4.3-2.7,8.5-5.8,12.3-9.2c5.9-5.2,11.3-11,16-17.3
			c4.6-6.4,8.5-13.2,11.7-20.4c-0.3,0.6-0.6,1.2-0.9,1.8c-0.4,1.1-1,2.1-1.4,3.1c-0.5,1-1,2.1-1.6,3.1c0.3-0.6,0.6-1.3,0.8-1.9
			c-0.3,0.5-0.6,1.1-1,1.7c-3.1,5.6-6.8,11-11.1,16.1c-1.1,1.4-2.2,2.7-3.3,3.8s-2.1,2.1-3,2.9c-0.4,0.3-0.7,0.7-1,1
			c-9.9,9.8-20.4,16.8-31.5,21.8c0,0.1-0.1,0.3-0.2,0.5c-1.3,0.6-2.7,1-4.1,1.5c-1.4,0.5-2.7,0.9-4.1,1.3
			c-6.5,2.3-13.3,3.9-20.5,4.8c-1,0.4,2.9,0.3,1,0.7c-0.2,0-0.5,0.1-0.7,0.1c1.3-0.1,2.7-0.4,4-0.6
			C227.8,244.8,227.7,244.7,227.7,244.7z"/>
		<path class="st7" d="M112.1,191.4c7.6,13.9,18.3,26,31.1,35.4c12.7,9.4,27.6,15.9,43.1,19c-5.6-1.4-11.1-3.5-16.4-5.8
			c-5.3-2.4-10.3-5.1-15.1-8.3c-0.7-0.4-1.5-0.8-2.2-1.3c0.4,0.2,0.7,0.4,1,0.6c-0.9-0.6-1.7-1.2-2.6-1.9c-0.5-0.1-0.7,0-0.8,0.4
			c-1.2-0.9-3.3-2.6-5-3.8c-1.6-1.3-2.8-2.5-2.1-2.4c0.1,0,0.2,0.1,0.4,0.1c-0.8-0.7-1.6-1.3-2.5-1.9l-2.4-2
			c-1.3-0.8-2.5-1.7-3.7-2.6c-1.1-0.9-2.2-1.7-2.9-2.6c-0.3-0.3-0.5-0.6-0.8-0.9c-0.5-0.5-1-1.1-1.5-1.6c-0.5-0.6-1-1.2-1.5-1.9l0,0
			c-0.7-0.2-0.1,1,0.5,2.1c0.6,1.1,1.2,2,0.4,1.3c-1.8-1.7-3.1-3.2-4.1-4.5s-1.6-2.3-2-3.1c-0.8-1.6-0.6-2.3,0.2-2.3
			c-9.2-11.7-16.2-24.9-20.8-38.6C104.4,173.9,107.8,182.9,112.1,191.4z"/>
		<path class="st8" d="M101.4,119.2c0-0.1,0.1-0.3,0.1-0.4c-0.1,0.3-0.1,0.6-0.2,0.9c-0.5,2.6-0.7,5.3-1,8c-0.1,1.3-0.2,2.7-0.3,4
			l-0.1,2v2c-0.2,5.3,0.1,10.6,0.6,15.9c0.3,2.2,0.4,4.4,0.8,6.6l0.5,3.3l0.7,3.2c4.7,13.7,11.6,26.8,20.8,38.6h0.1
			c-3.1-4.6-5.8-9.2-8.3-14.1c-2.5-4.9-4.7-10.2-6.6-16.1c-1.4-3.5-2.7-7.9-3.8-12.2c-1-4.4-1.7-8.7-1.8-12.1
			c-0.3-5.9-0.1-11.3,0.2-16.5c0.1-1.3,0.2-2.6,0.3-3.8c0.2-1.3,0.3-2.5,0.4-3.8c0.1-1.2,0.3-2.5,0.5-3.7s0.3-2.5,0.6-3.7
			c0.9-4.9,2.1-9.8,3.5-14.9c1.5-5.1,3.5-10.4,6-16c0.6-1,1.2-2,1.7-3c0.6-1,1.2-1.9,1.8-2.9c1.2-2,2.6-3.8,3.8-5.6
			c2.7-3.6,5.5-7.1,8.5-10.2c3-3.2,6.2-6.2,9.4-9c3.3-2.7,6.7-5.4,10.3-7.7c14.1-9.5,30-15.7,47.1-18.5c-5.4,0.7-10.8,1.8-16.3,3.3
			c-5.3,1.2-10.8,3.2-16.2,5.6c-1.3,0.6-2.7,1.2-4,1.9c-1.3,0.7-2.6,1.4-4,2.1c-1.3,0.7-2.6,1.5-3.9,2.2s-2.5,1.6-3.8,2.4
			c-5,3.3-9.8,7.1-14.3,11.2c-8.9,8.2-16.4,18-22.1,28.5C106.9,97.1,103.1,108.3,101.4,119.2z"/>
		<path class="st3" d="M144.2,223.7c-1.1-1-2.3-1.9-3.3-3c-0.7-0.5-1.4-0.9-2.1-1.4l2.4,2c0.8,0.7,1.6,1.3,2.5,1.9
			C143.8,223.4,144,223.6,144.2,223.7z"/>
		<path class="st3" d="M146.1,224.9c-1.3-1-2.5-2.2-3.9-3.3c-0.5-0.3-0.9-0.6-1.4-0.9c1,1,2.2,2,3.3,3
			C144.7,224,145.4,224.5,146.1,224.9z"/>
		<path class="st9" d="M309.9,96.3c-0.3-1-0.7-2.1-1-3.1c2.6,5.7,4.6,11.6,6,17.7c3.3,12.5,4.4,25.6,3.1,38.5s-4.8,25.6-10.5,37.3
			S293.9,209,284.4,218s-20.6,16.3-32.7,21.4c5.9-2,11.6-4.5,17.1-7.6c5.5-3.1,11-6.8,16.3-11.5l-1.3,1.2l-1.3,1.2
			c-0.9,0.8-1.8,1.5-2.7,2.3c-0.9,0.7-1.9,1.4-2.8,2.2l-1.4,1.1l-1.4,1c-1,0.7-1.9,1.3-2.9,2c-1,0.6-2,1.2-3,1.8
			c-1.9,1.2-4,2.2-6,3.3c-8.2,4.1-16.8,7-25.7,8.9c1.2-0.2,2.5-0.4,3.9-0.7c1.1-0.2,2.2-0.6,3.3-0.9l3.3-1l3.3-1.1l1.6-0.6l1.6-0.6
			l3.2-1.3c1.1-0.4,2.1-0.9,3.1-1.4c2.1-0.9,4.1-2,6.1-3.1c6.4-3.6,12.6-8.1,17.9-12.7c5.3-4.6,9.7-9.3,13.1-13.1
			c1.9-2.2,3.5-4.5,5.3-6.9c0.8-1.2,1.6-2.4,2.4-3.7c0.8-1.2,1.5-2.5,2.3-3.8c2.9-5.1,5.5-10.6,7.4-16.4c0.7-2.3,1.7-5.4,2.5-8.4
			c0.7-2.5,1.2-5.2,1.8-8c0.1-1.7,0.5-3.9,0.8-6.1c0.2-2.2,0.6-4.3,0.6-5.8c0.4-6.6,0.6-13.1,0.4-19.5c-0.1-0.6-0.1-1.3-0.2-1.9
			c-0.1-0.8-0.4-2.3-0.5-4.1c-0.1-0.9-0.1-1.8-0.2-2.7c-0.1-0.9-0.2-1.8-0.2-2.6l-0.4-2.5l-0.6-2.5c-0.4-1.7-0.7-3.3-1.2-4.9
			c-0.2-0.7-0.4-1.4-0.6-2.1c-0.4-1.4-0.9-2.8-1.3-4.2l-0.7-2.1l-0.8-2.1c-0.6-1-1-2.2-1.4-3.5c-5.2-12.8-12.9-24.6-22.3-34.7
			c-9.4-10.1-20.6-18.6-33-24.9c-9.7-5-23.1-7.7-36.3-7.8c-3.6,0.1-6.3,0.3-8.2,0.9c22.1,0.8,42.6,8.7,59.2,21.2
			C288.5,61.3,301.9,77.6,309.9,96.3z"/>
		<path class="st3" d="M274.4,229.7l-0.1,0.4l1.6-1.1l1.6-1.2c1-0.8,2.1-1.6,3.1-2.4c-1,0.8-2,1.5-3,2.2l-1.5,1.1L274.4,229.7z"/>
		<path class="st10" d="M240.5,244.7c-8.7,2.1-17.8,3.3-26.8,3.2l-3,0.1c6.1,0.6,12.5,0.5,19.1-0.4c6.7-0.9,13.6-2.5,20.8-5
			c-21.3,8-44.1,8.6-64.6,3.2c-15.6-3.2-30.4-9.7-43.1-19c-12.7-9.4-23.5-21.5-31.1-35.4c6.3,12.2,14.8,23.2,25.1,32.3
			s22.3,16.4,35.4,21.1c1.9,0.5,3.3,0.6,3.9,0.4c11.5,4.6,24.7,6.5,37.9,5.8c13.2-0.7,26.3-3.9,38.7-8.6c0.5-0.1,0.2,0.1-0.4,0.4
			c-0.6,0.3-1.3,0.6-1.8,0.8c0.7-0.3,1.5-0.6,2.2-0.9l2.2-1c1.4-0.7,2.9-1.3,4.3-2.1c4.5-2.6,8.9-5.8,14.1-9.5
			c-1.2,0.8-2.5,1.6-3.7,2.3c-1.3,0.7-2.5,1.5-3.9,2.2c-4.5,2.5-9,4.6-13.4,6.3c-1.1,0.4-2.2,0.8-3.2,1.1c-1.1,0.3-2.1,0.7-3.1,1
			c-1,0.3-2,0.5-3,0.8c-0.5,0.1-1,0.2-1.4,0.4C241.4,244.5,241,244.6,240.5,244.7z"/>
		<path class="st3" d="M266,234.8c1.3-0.7,2.6-1.5,3.9-2.2s2.5-1.5,3.7-2.3c0.3-0.2,0.5-0.4,0.8-0.6v0.1l1.6-1l1.5-1.1
			c1-0.7,2-1.5,3-2.2c6.1-5,11.6-10.4,16.5-16.4c-3.4,3.8-7.8,8.5-13.1,13.1C278.7,226.7,272.5,231.2,266,234.8z"/>
		<path class="st11" d="M271.8,49.9c-9.2-6.3-19.3-11.1-29.9-14.3c-5.3-1.5-10.7-2.7-16.2-3.4c-5.5-0.7-11-0.9-16.5-0.8
			c0.4,0.6,1.5,1.1,3.3,1.4c0.7,0.3,1.6,0.5,2.5,0.7c1,0.2,2,0.4,3.2,0.5c0.6,0.1,1.2,0.1,1.8,0.2c0.6,0.1,1.3,0.2,1.9,0.2
			c1.3,0.2,2.8,0.2,4.2,0.4c0.1-0.3-6.9-0.9-2.9-0.8c2.5-0.3,8.4,0.5,13.2,1.9c0.9,0.3,1.7,0.5,2.4,0.8c0.3,0.1,0.7,0.1,1,0.2
			c0.4-0.1,0.9-0.2,1.8,0.4c0.9,0.2,2.7,0.8,4.9,1.7c1.1,0.5,2.3,1,3.6,1.5s2.6,1.2,3.9,1.8c5.2,2.6,10,5.6,11.4,6.5
			c0,0-0.2-0.1-0.5-0.4c-0.3-0.3-0.9-0.6-1.5-1c-0.6-0.4-1.3-0.9-2.1-1.4c-0.4-0.3-0.8-0.5-1.2-0.8c-0.4-0.2-0.8-0.5-1.3-0.8
			c-1.7-1-3.4-2-4.8-2.7c-1.3-0.7-2.2-1.1-2.2-1.1c0.8,0.3,1.7,0.6,2.6,1c-0.1,0-0.2,0-0.3,0.1c0.9,0.4,1.8,0.8,2.7,1.3
			c1.1,0.2,1.6,0,3.6,0.9c-1.5-0.8-1.5-0.8-3-1.7c2.5,0.7,6.9,3.3,9.7,5.3c-0.5,0-1.4-0.5-2.4-1c-1-0.6-2.1-1.2-2.8-1.7l1.4,0.9
			c-0.7-0.4-1.9-1.1-2.8-1.6c-0.9-0.4-1.5-0.6-1-0.1c0.8,0.6,3,1.8,4.8,2.7c0.4,0.2,0.8,0.4,1.1,0.6c0.1,0.1,0.2,0.1,0.3,0.2
			c-0.1-0.1-0.2-0.1-0.3-0.2c-0.3-0.2-0.7-0.4-1.1-0.6c-0.6-0.3-1.1-0.5-1.2-0.4c1.5,0.8,2.9,1.7,4.3,2.7c0.2,0.1,0.5,0.2,0.8,0.4
			c-0.3-0.2-0.7-0.5-1.1-0.8l1.4,1l-0.3-0.2c1.5,1,2.5,1.7,3.6,2.3s2.2,1.1,3.5,2.1c-1.7-1.1,0.1,0.8-1.2,0.1
			c0.3,0.2,0.6,0.5,0.9,0.7c0.7,0.5,1.4,1,2.2,1.5c0.7,0.6,1.4,1.2,2.2,1.8c2,1.4,3.8,2.8,5.6,4.1c-0.1,0.6-1.3-0.4-2.7-1.5
			c1.3,1.3,2.7,2.7,3.9,4.2c0.6,0.4,0.9,0.4,1.5,0.9c0.6,0.4,1.4,1.2,2.9,2.9c-0.4-0.1-0.7,0-1.2-0.2c2.3,2.6,4.4,5.3,6.4,8.1
			c0.4,0.5,0.9,1.1,1.3,1.6c0,0,0.5,0.2,1.4,1.6c-0.4-0.5-0.9-1-1.4-1.6l0,0c0.8,1.2,1.6,2.6,2.4,4c3,4.9,5.7,10.1,7.9,15.4
			c0-0.1,0-0.2,0-0.4c-0.1-0.2-0.1-0.4-0.2-0.6c0.1,0.2,0.2,0.4,0.2,0.6c0.4,1.2,0.8,2,1.3,2.9c0.4,0.9,0.9,1.8,1.2,3.1
			c-0.1-0.5-0.3-1.1-0.5-1.6c0.6,2.1,1.2,4,1.9,5.7c0.6,1.8,1.2,3.5,1.8,5.2c-1.5-6.7-3.7-13.4-6.6-19.6c-0.5-1.1-1-2.1-1.5-3.2
			c-0.5-1.1-1-2.1-1.6-3.1c-0.6-1-1.1-2.1-1.7-3.1c-0.6-1-1.2-2-1.8-3l-0.9-1.5l-1-1.4l-1.9-2.9l-2.1-2.8l-1-1.4l-1.1-1.3l-2.2-2.7
			l-2.3-2.6l-1.2-1.3l-1.2-1.2l-2.4-2.5C278.9,55.7,275.5,52.6,271.8,49.9z"/>
		<path class="st12" d="M315.3,150.6v0.1C315.3,150.6,315.4,150.6,315.3,150.6c0-0.1,0-0.2,0-0.2c0-0.6,0.1-1.1,0.1-1.6
			c0,0.5-0.1,1.1-0.1,1.6V150.6c1.5-8.2,1.7-17.7,0.6-27.1s-3.4-18.8-6.1-27.2c-8-18.7-21.4-35-38.1-46.4c3.7,2.7,7.2,5.8,10.5,9
			l2.4,2.5l1.2,1.2l1.2,1.3l2.3,2.6l2.2,2.7l1.1,1.3l1,1.4l2.1,2.8l1.9,2.9l1,1.4l0.9,1.5c0.6,1,1.2,2,1.8,3c0.6,1,1.1,2.1,1.7,3.1
			s1.1,2.1,1.6,3.1c0.5,1.1,1,2.1,1.5,3.2c2.9,6.3,5.1,12.9,6.6,19.6c0.5,1.6,0.9,3.2,1.2,4.8c-0.3-0.8-0.4-1.3-0.6-1.7
			c0.2,0.9,0.4,1.8,0.5,2.6l0.4,2.7c0.1,0.9,0.3,1.8,0.4,2.7l0.2,2.7C316,134.2,316.1,142.4,315.3,150.6z"/>
		<path class="st3" d="M285.1,220.4c-5.3,4.7-10.7,8.4-16.3,11.5c-5.5,3.1-11.2,5.5-17.1,7.6c-6.5,2.7-13.3,4.9-20.2,6.3
			c1.4,0,3.1-0.1,5.2-0.3c8.9-1.9,17.6-4.8,25.7-8.9c2-1.1,4.1-2.1,6-3.3c1-0.6,2-1.2,3-1.8c1-0.7,1.9-1.3,2.9-2l1.4-1l1.4-1.1
			c0.9-0.7,1.8-1.4,2.8-2.2c0.9-0.8,1.8-1.5,2.7-2.3l1.3-1.2L285.1,220.4z"/>
		<path class="st5" d="M237.1,243.6c1.1-0.3,2.3-0.7,3.5-1s2.3-0.8,3.4-1.1c2.3-0.7,4.6-1.7,6.9-2.5c4.5-1.9,9.1-4,13.5-6.6
			c8.8-5,17-11.3,24.1-18.5l1.3-1.4l1.3-1.4c0.8-0.9,1.7-1.9,2.5-2.8c1.6-2,3.2-3.9,4.6-5.9c1.5-2,2.8-4.1,4.1-6.1
			c0.6-1,1.2-2.1,1.8-3.2l0.9-1.6l0.8-1.6c0.5-1.1,1.1-2.1,1.6-3.2c0.5-1.1,0.9-2.2,1.4-3.3c0.2-0.5,0.5-1.1,0.7-1.6
			c0.2-0.5,0.4-1.1,0.6-1.6c0.4-1.1,0.8-2.2,1.2-3.2c1.4-4.4,2.5-8.6,3.2-12.8c-1.6,5-3.7,10.3-6.2,15.6
			c-3.1,7.9-7.3,15.4-12.2,22.4s-10.7,13.3-17.2,18.8l-1.4,1.3l-1.5,1.2c-1,0.8-2,1.6-3,2.4l-3.1,2.2c-1,0.8-2.1,1.4-3.2,2.1
			c-1.1,0.7-2.2,1.4-3.3,2s-2.2,1.3-3.3,1.9c-2.3,1.2-4.6,2.4-6.9,3.4c-4,1.8-8.2,3.3-12.4,4.7c-4.2,1.2-8.5,2.3-12.8,3
			c0.5,0.5,1.7,0.8,3.6,0.9c6.9-1.4,13.7-3.6,20.2-6.3C247,241,242.3,242.4,237.1,243.6z"/>
		<path class="st13" d="M306.6,183c-3.1,7.2-7,14.1-11.7,20.4c-4.7,6.3-10,12.2-16,17.3c6.4-5.6,12.3-11.9,17.2-18.8
			c4.9-6.9,9.1-14.4,12.2-22.4C307.8,180.7,307.2,181.9,306.6,183z"/>
		<path class="st3" d="M314.6,164c-0.6,4.2-1.8,8.5-3.2,12.8c-0.4,1.1-0.8,2.2-1.2,3.2c-0.2,0.5-0.4,1.1-0.6,1.6
			c-0.2,0.5-0.5,1.1-0.7,1.6c-0.5,1.1-0.9,2.2-1.4,3.3c-0.5,1.1-1.1,2.1-1.6,3.2l-0.8,1.6l-0.9,1.6c-0.6,1.1-1.2,2.1-1.8,3.2
			c-1.3,2.1-2.6,4.2-4.1,6.1c-1.4,2-3,4-4.6,5.9c-0.8,1-1.7,1.9-2.5,2.8l-1.3,1.4l-1.3,1.4c-7.1,7.3-15.3,13.5-24.1,18.5
			c-4.4,2.5-8.9,4.6-13.5,6.6c-2.3,0.9-4.6,1.8-6.9,2.5c-1.2,0.4-2.3,0.8-3.4,1.1c-1.2,0.3-2.3,0.7-3.5,1c5.2-1.1,10-2.6,14.6-4.1
			c12.1-5.1,23.2-12.5,32.7-21.4c9.5-9,17.3-19.6,23.1-31.3c5.7-11.7,9.3-24.4,10.5-37.3c1.3-12.9,0.1-26-3.1-38.5
			c5.2,21.2,3.2,43.5-4.5,62.7c-0.3,1-0.6,2-1,3l-1.1,2.9C310.9,174.3,312.9,169,314.6,164z"/>
		<rect x="118.6" y="113" class="st14" width="181.6" height="26.7"/>
		<text transform="matrix(0.9997 0 0 1 118.5902 131.2121)" class="st15 st16">Compliance Rate</text>
		<text transform="matrix(0.9997 0 0 1 161.0277 182.7472)" class="st17 st18 st19">67.9%</text>
	</g>
	<path class="st20" d="M538.6,367.5c0,0.1,0,0.1,0,0.2c0,0.2,0,0.3,0,0.5C538.5,367.9,538.5,367.7,538.6,367.5z"/>
	<path class="st20" d="M324.7,335.7c0,0.2-0.1,0.3-0.1,0.4c0,0.2-0.1,0.4-0.1,0.5C324.6,336.4,324.7,336,324.7,335.7z"/>
	<g>
		<path class="st21" d="M524.6,423.5c-3,3.5-7.6,8.9-13.6,14.5s-13.3,11.3-21.1,15.6C503.8,446.1,515.7,435.5,524.6,423.5z"/>
		<path class="st21" d="M509,439.2c-5.3,4.7-10.7,8.4-16.3,11.5c-5.5,3.1-11.2,5.5-17.1,7.6c-6.5,2.7-13.3,4.9-20.2,6.3
			c1.4,0,3.1-0.1,5.2-0.3c8.9-1.9,17.6-4.8,25.7-8.9c2-1.1,4.1-2.1,6-3.3c1-0.6,2-1.2,3-1.8c1-0.7,1.9-1.3,2.9-2l1.4-1l1.4-1.1
			c0.9-0.7,1.8-1.4,2.8-2.2c0.9-0.8,1.8-1.5,2.7-2.3l1.3-1.2L509,439.2z"/>
		<path class="st21" d="M489.9,453.6c-2,1-4,2.1-6.1,3.1c-1,0.5-2.1,1-3.1,1.4l-3.2,1.3l-1.6,0.6l-1.6,0.6l-3.3,1.1l-3.3,1
			c-1.1,0.3-2.2,0.6-3.3,0.9c0.5-0.1,0.9-0.2,1.4-0.3c0.5-0.1,0.9-0.2,1.4-0.4c1-0.3,2-0.5,3-0.8s2-0.7,3.1-1
			c1.1-0.4,2.1-0.7,3.2-1.1C480.9,458.2,485.4,456.1,489.9,453.6z"/>
		<path class="st21" d="M477,455.9c2.4-1,4.6-2.2,6.9-3.4c1.1-0.6,2.2-1.3,3.3-1.9s2.2-1.3,3.3-2s2.2-1.4,3.2-2.1l3.1-2.2
			c1-0.8,2-1.6,3-2.4l1.5-1.2l1.4-1.3c-3.9,3.3-8,6.4-12.3,9.2c-1.1,0.7-2.2,1.4-3.3,2s-2.2,1.3-3.3,1.9
			C481.6,453.7,479.3,454.9,477,455.9z"/>
		<path class="st21" d="M451.6,463.4c0,0.1,0.1,0.1,0.2,0.2c4.3-0.7,8.6-1.8,12.8-3c4.2-1.3,8.4-2.8,12.4-4.7
			c-4,1.8-8.2,3.3-12.4,4.6l-3.2,0.9l-1.6,0.4l-1.6,0.3l-3.2,0.7C453.8,463.1,452.7,463.2,451.6,463.4z"/>
		<path class="st21" d="M435.9,466.7c1,0,2,0,3,0c1.7-0.1,3.4-0.3,5.1-0.4c1.9-0.2,3.8-0.5,5.7-0.7c1.9-0.3,3.8-0.6,5.7-1
			c-1.9,0-3.2-0.4-3.6-0.9c-9.5,1.7-19.1,1.9-28.6,1c-1.2-0.1-2.4-0.3-3.5-0.4c-1.2-0.2-2.4-0.3-3.5-0.5c-2.3-0.5-4.7-0.8-7-1.5
			c-4.6-1.1-9.1-2.6-13.5-4.3c-1.2-0.4-2.4-0.8-3.5-1.2c-1.2-0.4-2.2-0.9-3.4-1.3c7.3,3.5,14.9,6.3,22.9,8.2
			C419.5,465.5,427.7,466.6,435.9,466.7z"/>
		<path class="st21" d="M374.3,447.1c-1.6-1.1-3.1-2.4-4.6-3.7c-1.5-1.3-3.1-2.6-4.6-4c-0.4-0.3-0.8-0.6-1.3-0.9
			c0.9,0.9,1.9,1.8,2.9,2.6c1,0.8,1.9,1.7,3,2.6C371.1,444.9,372.7,446.1,374.3,447.1z"/>
		<path class="st21" d="M363.8,438.6c-0.8-0.6-1.7-1.1-2.6-1.7c1.4,1.2,2.7,2.4,4.1,3.5s2.8,2.3,4.3,3.4c-1-0.8-2-1.7-3-2.6
			C365.6,440.4,364.7,439.5,363.8,438.6z"/>
		<path class="st21" d="M433.3,466.7c0.9,0,1.7,0,2.6,0c-8.2-0.1-16.4-1.2-24.3-3c-7.9-1.9-15.6-4.7-22.9-8.2
			c-0.5-0.2-1.1-0.4-1.6-0.6c-4.1-1.8-8.5-4.4-12.8-7.7c-1.6-1-3.1-2.2-4.7-3.3c11.7,9.6,25.5,16.8,40.5,20.8
			c8,1.7,16.3,2.4,24.6,2.2C434.2,466.8,433.8,466.7,433.3,466.7z"/>
		<path class="st20" d="M477,455.9c2.4-1,4.6-2.2,6.9-3.4c1.1-0.6,2.2-1.3,3.3-1.9s2.2-1.3,3.3-2s2.2-1.4,3.2-2.1l3.1-2.2
			c1-0.8,2-1.6,3-2.4l1.5-1.2l1.4-1.3c-3.9,3.3-8,6.4-12.3,9.2c-1.1,0.7-2.2,1.4-3.3,2s-2.2,1.3-3.3,1.9
			C481.6,453.7,479.3,454.9,477,455.9z"/>
		<path class="st20" d="M398.4,458.9c-0.3-0.1-0.6-0.2-1-0.3C397.8,458.7,398.1,458.9,398.4,458.9
			C398.5,458.9,398.4,458.9,398.4,458.9z"/>
		<path class="st20" d="M368,442.5c-1.1-1-2.3-1.9-3.3-3c-0.7-0.5-1.4-0.9-2.1-1.4l2.4,2c0.8,0.7,1.6,1.3,2.5,1.9
			C367.6,442.2,367.8,442.3,368,442.5z"/>
		<path class="st20" d="M400.4,460.3c-1.1-0.5-1.8-1-1.9-1.4c-0.3-0.1-0.7-0.2-1-0.4c-1.3-0.3-2.5-0.8-3.7-1.2
			c-1.2-0.4-2.4-0.8-3.6-1.2c0.8,0.4,1.7,0.8,2.5,1.1l2.5,1.1C396.9,459.1,398.7,459.7,400.4,460.3z"/>
		<path class="st20" d="M369.9,443.7c-1.3-1-2.5-2.2-3.9-3.3c-0.5-0.3-0.9-0.6-1.4-0.9c1,1,2.2,2,3.3,3
			C368.5,442.8,369.2,443.2,369.9,443.7z"/>
		<path class="st20" d="M451.6,463.4c0,0.1,0.1,0.1,0.2,0.2c4.3-0.7,8.6-1.8,12.8-3c4.2-1.3,8.4-2.8,12.4-4.7
			c-4,1.8-8.2,3.3-12.4,4.6l-3.2,0.9l-1.6,0.4l-1.6,0.3l-3.2,0.7C453.8,463.1,452.7,463.2,451.6,463.4z"/>
		<path class="st20" d="M498.3,448.5l-0.1,0.4l1.6-1.1l1.6-1.2c1-0.8,2.1-1.6,3.1-2.4c-1,0.8-2,1.5-3,2.2l-1.5,1.1L498.3,448.5z"/>
		<path class="st22" d="M464.4,463.5c-8.7,2.1-17.8,3.3-26.8,3.2l-3,0.1c6.1,0.6,12.5,0.5,19.1-0.4c6.7-0.9,13.6-2.5,20.8-5
			c-21.3,8-44.1,8.6-64.6,3.2c-15.6-3.2-30.4-9.7-43.1-19c-12.7-9.4-23.5-21.5-31.1-35.4c6.3,12.2,14.8,23.2,25.1,32.3
			c10.3,9.1,22.3,16.4,35.4,21.1c1.9,0.5,3.3,0.6,3.9,0.4c11.5,4.6,24.7,6.5,37.9,5.8c13.2-0.7,26.3-3.9,38.7-8.6
			c0.5-0.1,0.2,0.1-0.4,0.4c-0.6,0.3-1.3,0.6-1.8,0.8c0.7-0.3,1.5-0.6,2.2-0.9l2.2-1c1.4-0.7,2.9-1.3,4.3-2.1
			c4.5-2.6,8.9-5.8,14.1-9.5c-1.2,0.8-2.5,1.6-3.7,2.3c-1.3,0.7-2.5,1.5-3.9,2.2c-4.5,2.5-9,4.6-13.4,6.3c-1.1,0.4-2.2,0.8-3.2,1.1
			c-1.1,0.3-2.1,0.7-3.1,1s-2,0.5-3,0.8c-0.5,0.1-1,0.2-1.4,0.4C465.3,463.3,464.9,463.4,464.4,463.5z"/>
		<path class="st20" d="M489.9,453.6c1.3-0.7,2.6-1.5,3.9-2.2c1.3-0.7,2.5-1.5,3.7-2.3c0.3-0.2,0.5-0.4,0.8-0.6v0.1l1.6-1l1.5-1.1
			c1-0.7,2-1.5,3-2.2c6.1-5,11.6-10.4,16.5-16.4c-3.4,3.8-7.8,8.5-13.1,13.1C502.6,445.5,496.4,449.9,489.9,453.6z"/>
		<path class="st23" d="M433.3,466.7c0.9,0,1.7,0,2.6,0c-2.7,0-5.4-0.2-8.1-0.4c-1.4-0.1-2.7-0.3-4-0.5c-0.7-0.1-1.3-0.1-2-0.2
			l-2-0.3c-5.4-0.8-10.6-2.1-15.8-3.7c-0.1,0-0.2,0-0.3,0c-1.4-0.4-2.5-0.7-3.3-1.1c-1.7-0.7-3.5-1.2-5.2-2l-2.5-1.1
			c-0.8-0.3-1.7-0.7-2.5-1.1c-0.6-0.2-1.2-0.5-1.8-0.7c-0.7-0.3-1.4-0.6-2.1-0.9c-0.7-0.4-1.4-0.7-2.1-1.1c-0.9-0.4-1.8-0.9-2.7-1.4
			c-0.9-0.5-1.8-1.1-2.8-1.6c4.8,3.2,9.8,5.9,15.1,8.3c5.3,2.3,10.7,4.4,16.4,5.8c8,1.7,16.3,2.4,24.6,2.2
			C434.2,466.8,433.8,466.7,433.3,466.7z"/>
		<path class="st20" d="M509,439.2c-5.3,4.7-10.7,8.4-16.3,11.5c-5.5,3.1-11.2,5.5-17.1,7.6c-6.5,2.7-13.3,4.9-20.2,6.3
			c1.4,0,3.1-0.1,5.2-0.3c8.9-1.9,17.6-4.8,25.7-8.9c2-1.1,4.1-2.1,6-3.3c1-0.6,2-1.2,3-1.8c1-0.7,1.9-1.3,2.9-2l1.4-1l1.4-1.1
			c0.9-0.7,1.8-1.4,2.8-2.2c0.9-0.8,1.8-1.5,2.7-2.3l1.3-1.2L509,439.2z"/>
		<path class="st24" d="M489.9,453.6c-2,1-4,2.1-6.1,3.1c-1,0.5-2.1,1-3.1,1.4l-3.2,1.3l-1.6,0.6l-1.6,0.6l-3.3,1.1l-3.3,1
			c-1.1,0.3-2.2,0.6-3.3,0.9c0.5-0.1,0.9-0.2,1.4-0.3c0.5-0.1,0.9-0.2,1.4-0.4c1-0.3,2-0.5,3-0.8s2-0.7,3.1-1
			c1.1-0.4,2.1-0.7,3.2-1.1C480.9,458.2,485.4,456.1,489.9,453.6z"/>
		<path class="st20" d="M379.1,450.5c-0.6-0.4-1.2-0.8-1.8-1.2c-0.6-0.4-1.2-0.9-1.8-1.3c-0.3-0.1-0.5-0.1-0.7-0.2
			c0.9,0.6,1.7,1.2,2.6,1.9C378.1,450.1,378.7,450.3,379.1,450.5z"/>
		<path class="st1" d="M406.2,254.3c0,0.2-0.1,0.3-0.1,0.4c0,0.2-0.1,0.4-0.1,0.5C406.1,255,406.2,254.6,406.2,254.3z"/>
		<ellipse class="st6" cx="432.3" cy="358.2" rx="109.9" ry="109.9"/>
		<path class="st21" d="M538.5,369.7c-0.3,1.5-0.6,3-1,4.4c-1.1,7.9-3.1,15.7-5.9,23.2c0.4-0.8,0.7-1.5,1.1-2.3
			c0.3-0.8,0.6-1.6,0.9-2.4C536.1,385.2,537.7,377.5,538.5,369.7z"/>
		<path class="st21" d="M460.3,462.5c1.1-0.3,2.3-0.7,3.5-1s2.3-0.8,3.4-1.1c2.3-0.7,4.6-1.7,6.9-2.5c4.5-1.9,9.1-4,13.5-6.6
			c8.8-5,17-11.3,24.1-18.5l1.3-1.4l1.3-1.4c0.8-0.9,1.7-1.9,2.5-2.8c1.6-2,3.2-3.9,4.6-5.9c1.5-2,2.8-4.1,4.1-6.1
			c0.6-1,1.2-2.1,1.8-3.2l0.9-1.6l0.8-1.6c0.5-1.1,1.1-2.1,1.6-3.2s0.9-2.2,1.4-3.3c0.2-0.5,0.5-1.1,0.7-1.6
			c0.2-0.5,0.4-1.1,0.6-1.6c0.4-1.1,0.8-2.2,1.2-3.2c1.4-4.4,2.5-8.6,3.2-12.8c-1.6,5-3.7,10.3-6.2,15.6
			c-3.1,7.9-7.3,15.4-12.2,22.4c-4.9,7-10.7,13.3-17.2,18.8l-1.4,1.3l-1.5,1.2c-1,0.8-2,1.6-3,2.4l-3.1,2.2c-1,0.8-2.1,1.4-3.2,2.1
			c-1.1,0.7-2.2,1.4-3.3,2s-2.2,1.3-3.3,1.9c-2.3,1.2-4.6,2.4-6.9,3.4c-4,1.8-8.2,3.3-12.4,4.7c-4.2,1.2-8.5,2.3-12.8,3
			c0.5,0.5,1.7,0.8,3.6,0.9c6.9-1.4,13.7-3.6,20.2-6.3C470.2,459.9,465.5,461.4,460.3,462.5z"/>
		<path class="st21" d="M529.8,402c-3.1,7.2-7,14.1-11.7,20.4c-4.7,6.3-10,12.2-16,17.3c6.4-5.6,12.3-11.9,17.2-18.8
			c4.9-6.9,9.1-14.4,12.2-22.4C531,399.7,530.4,400.8,529.8,402z"/>
		<path class="st21" d="M538.1,345.2c0.3,2.4,0.3,4.7,0.4,7.1c0.1,1.1,0.1,2.3,0.1,3.4s0.1,2.3,0,3.4c-0.1,2.3-0.1,4.5-0.3,6.8
			c-0.1,1.2-0.2,2.3-0.2,3.5c-0.2,1.6-0.4,3.3-0.6,4.9c0.3-1.4,0.7-2.9,1-4.4C539.3,361.5,539.2,353.3,538.1,345.2z"/>
		<path class="st21" d="M532.1,312.2c0.3,1,0.7,2,1,3.1c2,4.8,3.7,9.6,5,14.6C536.7,323.9,534.6,318,532.1,312.2z"/>
		<path class="st21" d="M533.1,315.3c-8-18.7-21.4-35-38.1-46.4c3.7,2.7,7.2,5.8,10.5,9l2.4,2.5l1.2,1.2l1.2,1.3l2.3,2.6l2.2,2.7
			l1.1,1.3l1,1.4l2.1,2.8l1.9,2.9l1,1.4l0.9,1.5c0.6,1,1.2,2,1.8,3c0.6,1,1.1,2.1,1.7,3.1c0.6,1,1.1,2.1,1.6,3.1
			c0.5,1.1,1,2.1,1.5,3.2c2.4,5.2,4.3,10.7,5.8,16.3c0.3,1.4,0.8,2.8,1,4.2l0.8,4.2c0.4,2.9,0.9,5.7,1.1,8.6
			c1.1,8.1,1.3,16.4,0.4,24.5c1.6-8.1,1.7-17.6,0.7-27.1S535.8,323.7,533.1,315.3z"/>
		<path class="st21" d="M533.7,392.6c-0.3,1-0.6,2-1,3l-1.1,2.9c2.6-5.2,4.6-10.5,6.2-15.6c-0.6,4.2-1.8,8.5-3.2,12.8
			c-0.4,1.1-0.8,2.2-1.2,3.2c-0.2,0.5-0.4,1.1-0.6,1.6c-0.2,0.5-0.5,1.1-0.7,1.6c-0.5,1.1-0.9,2.2-1.4,3.3c-0.5,1.1-1.1,2.1-1.6,3.2
			l-0.8,1.6l-0.9,1.6c-0.6,1.1-1.2,2.1-1.8,3.2c-1.3,2.1-2.6,4.2-4.1,6.1c-1.4,2-3,4-4.6,5.9c-0.8,1-1.7,1.9-2.5,2.8l-1.3,1.4
			l-1.3,1.4c-7.1,7.3-15.3,13.5-24.1,18.5c-4.4,2.5-8.9,4.6-13.5,6.6c-2.3,0.9-4.6,1.8-6.9,2.5c-1.2,0.4-2.3,0.8-3.4,1.1
			c-1.2,0.3-2.3,0.7-3.5,1c5.2-1.1,10-2.6,14.6-4.1c12.1-5.1,23.2-12.5,32.7-21.4c9.5-9,17.3-19.6,23.1-31.3
			c5.7-11.7,9.3-24.4,10.5-37.3c1.3-12.9,0.2-26-3.1-38.5C543.3,351.1,541.4,373.4,533.7,392.6z"/>
		<path class="st21" d="M538.5,369.7c-0.8,7.8-2.4,15.5-4.9,22.9c7.7-19.2,9.6-41.5,4.5-62.7c-1.3-5-3.1-9.9-5-14.6
			c2.7,8.4,5.1,17.8,6.1,27.3C540.3,352.1,540.1,361.6,538.5,369.7z"/>
		<path class="st21" d="M533.7,392.6c-0.3,0.8-0.6,1.6-0.9,2.4c-0.4,0.8-0.7,1.5-1.1,2.3l-0.9,2.4l-1,2.3c0.6-1.1,1.2-2.3,1.8-3.5
			l1.1-2.9C533,394.6,533.3,393.6,533.7,392.6z"/>
		<path class="st21" d="M531.7,397.3c-0.6,1.2-1.1,2.4-1.7,3.5c-0.8,1.7-1.5,3.4-2.4,5.1c0.8-1.3,1.5-2.6,2.2-4l1-2.3L531.7,397.3z"
			/>
		<path class="st21" d="M538.1,369.2c-0.2,1.7-0.4,3.4-0.6,5.1c0-0.1,0-0.1,0.1-0.2C537.7,372.5,537.9,370.9,538.1,369.2z"/>
		<path class="st21" d="M537.5,374.1c0,0.1,0,0.2-0.1,0.2c-0.7,4.5-1.6,9-2.9,13.4c-0.6,2.2-1.4,4.4-2.1,6.6
			c-0.4,1.1-0.8,2.2-1.2,3.2c-0.4,1.1-0.8,2.2-1.3,3.2c0.6-1.2,1.1-2.4,1.7-3.5C534.5,389.8,536.5,382.1,537.5,374.1z"/>
		<path class="st21" d="M450.9,463.6c1.1-0.2,2.2-0.3,3.3-0.5l3.2-0.7l1.6-0.3l1.6-0.4l3.2-0.9c4.2-1.3,8.4-2.8,12.4-4.6
			c2.4-1,4.6-2.2,6.9-3.4c1.1-0.6,2.2-1.3,3.3-1.9s2.2-1.3,3.3-2c4.3-2.7,8.5-5.8,12.3-9.2c5.9-5.2,11.3-11,16-17.3
			c4.6-6.4,8.5-13.2,11.7-20.4c-0.7,1.3-1.4,2.7-2.2,4c-5.2,10.4-12.4,20.2-21.5,28.7c-10.2,9.9-21,16.7-32.4,21.7
			c-11.5,4.8-23.7,7.7-37.5,8c-5.8,0.3-12.8,0-20-1.1c-7.2-1-14.6-2.9-21.3-5.1c4.4,1.7,8.9,3.2,13.5,4.3c2.3,0.6,4.6,1,7,1.5
			c1.2,0.2,2.4,0.3,3.5,0.5c1.2,0.2,2.4,0.4,3.5,0.4c9.5,0.9,19.2,0.7,28.6-1C451,463.8,450.9,463.7,450.9,463.6z"/>
		<path class="st21" d="M335.7,411.1c7.7,13.7,18.3,25.6,31,34.9c12.7,9.2,27.4,15.6,42.8,18.8c-15-4-28.8-11.1-40.5-20.8
			c-1.5-1.1-2.9-2.2-4.3-3.4c-1.4-1.2-2.7-2.4-4.1-3.5c-1.2-0.8-2.3-1.7-3.4-2.5s-2-1.7-2.7-2.6c-1.3-1.4-2.5-2.9-3.6-4.3
			c-1.2-1.4-2.2-2.9-3.3-4.3c-9.8-12-17-25.6-21.8-39.7l0.4,1.8l0.5,1.8l0.9,3.5l1.1,3.5l0.6,1.7l0.6,1.7l1.3,3.4l1.4,3.4
			c0.5,1.1,1,2.2,1.5,3.3C334.6,409,335.1,410.1,335.7,411.1z"/>
		<path class="st21" d="M323.6,369c0.5,4.9,1.1,9.9,2.2,14.7c4.8,14.1,12.1,27.7,21.8,39.7c-3.5-5-6.5-10-9.2-15.3
			c-2.7-5.4-5.1-11.1-7.1-17.5c-1.2-3.5-2.6-5.9-3.6-8.4c-0.6-1.2-1.1-2.4-1.5-3.7c-0.4-1.3-0.8-2.8-1-4.5
			c-1.3-11.9-0.4-25.5,2.8-38.6s8.6-25.4,14.5-36.1c4.4-7.3,10.3-14.4,17-20.9c6.8-6.4,14.6-12.3,23-16.8c4.1-2.4,8.5-4.3,12.7-6
			c2.2-0.8,4.3-1.7,6.5-2.3c1.1-0.4,2.2-0.7,3.2-1c1.1-0.3,2.2-0.6,3.2-0.9c8.6-2.3,16.8-3.5,24.2-4c-18.2,0.3-35.2,4.9-49.7,12.5
			c-14.5,7.6-26.6,18-35.8,29.8c-9.3,11.8-15.8,25-19.6,38.5C323.5,341.6,322.4,355.5,323.6,369z"/>
		<path class="st21" d="M538.1,345.2c-0.6-4.9-1.7-9.7-2.9-14.4c1.8,7.1,2.9,14.3,3.3,21.5C538.4,349.9,538.4,347.5,538.1,345.2z"/>
		<path class="st21" d="M533.1,315.3c-0.3-1-0.7-2.1-1-3.1c2.6,5.7,4.6,11.6,6,17.7c3.3,12.5,4.4,25.6,3.1,38.5
			c-1.3,12.9-4.8,25.6-10.5,37.3c-5.7,11.7-13.6,22.3-23.1,31.3s-20.6,16.3-32.7,21.4c5.9-2,11.6-4.5,17.1-7.6
			c5.5-3.1,11-6.8,16.3-11.5l-1.3,1.2l-1.3,1.2c-0.9,0.8-1.8,1.5-2.7,2.3c-0.9,0.7-1.9,1.4-2.8,2.2l-1.4,1.1l-1.4,1
			c-1,0.7-1.9,1.3-2.9,2c-1,0.6-2,1.2-3,1.8c-1.9,1.2-4,2.2-6,3.3c-8.2,4.1-16.8,7-25.7,8.9c1.2-0.2,2.5-0.4,3.9-0.7
			c1.1-0.2,2.2-0.6,3.3-0.9l3.3-1l3.3-1.1l1.6-0.6l1.6-0.6l3.2-1.3c1.1-0.4,2.1-0.9,3.1-1.4c2.1-0.9,4.1-2,6.1-3.1
			c7.8-4.4,15.2-10.1,21.1-15.6c6-5.6,10.5-11,13.6-14.5c-8.9,12.1-20.8,22.6-34.7,30.1c-4.5,2.5-9,4.6-13.4,6.3
			c-1.1,0.4-2.2,0.8-3.2,1.1c-1.1,0.3-2.1,0.7-3.1,1s-2,0.5-3,0.8c-0.5,0.1-1,0.2-1.4,0.4c-0.5,0.1-0.9,0.2-1.4,0.3
			c-8.7,2.1-17.8,3.3-26.8,3.2l-3,0.1c6.1,0.6,12.5,0.5,19.1-0.4c6.7-0.9,13.6-2.5,20.8-5c-21.3,8-44.1,8.6-64.6,3.2
			c-15.4-3.1-30.1-9.6-42.8-18.8c-12.7-9.2-23.3-21.2-31-34.9c5.6,10.7,12.9,20.4,21.6,28.8c8.8,8.3,18.8,15.3,30,20.4
			c22.2,10.4,48.4,13,73.4,6.7c5.2-1.2,10.5-2.9,15.7-5.1c5.2-2.2,10.3-5,15.1-8c6.6-4.4,13.1-9.1,19-14.4
			c6-5.3,11.4-11.3,15.7-18.1c8.4-13.3,14.2-28.4,16.7-44.2c2.5-15.8,1.9-32.2-2.2-47.8c-4.1-15.6-11.5-30.5-21.6-43.2
			c-10.1-12.7-22.9-23.3-37.3-30.9c-4.8-2.5-10.6-4.5-16.7-6c-6.2-1.4-12.8-2.1-19.4-2.3c-1.8-0.1-3.3,0.1-4.7,0.2
			c-1.4,0.2-2.5,0.3-3.5,0.6c21.5,1.1,41.4,8.9,57.6,21.1C511.7,280.3,525.1,296.5,533.1,315.3z"/>
		<path class="st21" d="M529.4,311.8c-0.5-1.1-1-2.1-1.5-3.2c-0.5-1.1-1-2.1-1.6-3.1s-1.1-2.1-1.7-3.1c-0.6-1-1.2-2-1.8-3l-0.9-1.5
			l-1-1.4l-1.9-2.9l-2.1-2.8l-1-1.4l-1.1-1.3l-2.2-2.7l-2.3-2.6l-1.2-1.3l-1.2-1.2l-2.4-2.5c-3.4-3.1-6.8-6.2-10.5-9
			c-9-6.2-18.9-10.9-29.3-14.1c-5.2-1.5-10.5-2.8-15.9-3.5c-1.3-0.2-2.7-0.3-4-0.5c-1.3-0.1-2.7-0.3-4-0.3l-4-0.2h-4
			c0.3,0.6,1.4,1.2,3.3,1.5c3.4,1.5,9.8,1.7,17.1,2.7s15.5,2.8,22.1,5.7c7.1,3.2,14,7.2,20.3,12s12.1,10.3,17.2,16.4
			c10.3,12.2,17.6,26.8,21.6,42c1.3,4.7,2.3,9.5,2.9,14.4c-0.2-2.9-0.6-5.7-1.1-8.6l-0.8-4.2c-0.3-1.4-0.7-2.8-1-4.2
			C533.7,322.6,531.8,317.1,529.4,311.8z"/>
		<path class="st21" d="M437.4,247.7c-3,0.8-4.1,1.8-3.7,2.7h4l4,0.2c1.4,0,2.7,0.2,4,0.3c1.3,0.2,2.7,0.2,4,0.5
			c5.4,0.7,10.7,1.9,15.9,3.5c10.4,3.1,20.3,7.9,29.3,14.1C478.8,256.7,458.9,248.9,437.4,247.7z"/>
		<path class="st20" d="M538.4,350.9c0.2,2.3,0.2,4.5,0.3,6.8c0,1.1,0,2.2-0.1,3.4c0,1.1,0,2.2-0.1,3.4c0,0.6-0.1,1.2-0.1,1.8
			c0,0.4,0.1,0.7,0.1,1.1c0.2-1.7,0.2-1.7,0.4-3.3c-0.1,2-0.2,3.9-0.3,5.6c0.8-8.1,0.6-16.3-0.5-24.4
			C538.3,347.1,538.3,349,538.4,350.9z"/>
		<path class="st20" d="M532.1,312.2c0.3,1,0.7,2,1,3.1c2,4.8,3.7,9.6,5,14.6C536.7,323.9,534.6,318,532.1,312.2z"/>
		<path class="st25" d="M450.9,463.6c1.1-0.2,2.2-0.3,3.3-0.5l3.2-0.7l1.6-0.3l1.6-0.4l3.2-0.9c4.2-1.3,8.4-2.8,12.4-4.6
			c2.4-1,4.6-2.2,6.9-3.4c1.1-0.6,2.2-1.3,3.3-1.9s2.2-1.3,3.3-2c4.3-2.7,8.5-5.8,12.3-9.2c5.9-5.2,11.3-11,16-17.3
			c4.6-6.4,8.5-13.2,11.7-20.4c-0.3,0.6-0.6,1.2-0.9,1.8c-0.4,1.1-1,2.1-1.4,3.1c-0.5,1-1,2.1-1.6,3.1c0.3-0.6,0.6-1.3,0.8-1.9
			c-0.3,0.5-0.6,1.1-1,1.7c-3.1,5.6-6.8,11-11.1,16.1c-1.1,1.4-2.2,2.7-3.3,3.8c-1.1,1.1-2.1,2.1-3,2.9c-0.4,0.3-0.7,0.7-1,1
			c-9.9,9.8-20.4,16.8-31.5,21.8c0,0.1-0.1,0.3-0.2,0.5c-1.3,0.6-2.7,1-4.1,1.5c-1.4,0.5-2.7,0.9-4.1,1.3
			c-6.5,2.3-13.3,3.9-20.5,4.8c-1,0.4,2.9,0.3,1,0.7c-0.2,0-0.5,0.1-0.7,0.1c1.3-0.1,2.7-0.4,4-0.6
			C451,463.8,450.9,463.7,450.9,463.6z"/>
		<path class="st20" d="M531.7,397.3c-0.4,0.9-0.8,1.8-1.2,2.7c-0.2,0.5-0.4,0.9-0.6,1.3c-0.3,0.8-0.7,1.6-1,2.4
			c0.3-0.6,0.6-1.2,0.9-1.8l1-2.3L531.7,397.3z"/>
		<path class="st26" d="M335.3,410.4c7.6,13.9,18.3,26,31.1,35.4c12.7,9.4,27.6,15.9,43.1,19c-5.6-1.4-11.1-3.5-16.4-5.8
			c-5.3-2.4-10.3-5.1-15.1-8.3c-0.7-0.4-1.5-0.8-2.2-1.3c0.4,0.2,0.7,0.4,1,0.6c-0.9-0.6-1.7-1.2-2.6-1.9c-0.5-0.1-0.7,0-0.8,0.4
			c-1.2-0.9-3.3-2.6-5-3.8c-1.6-1.3-2.8-2.5-2.1-2.4c0.1,0,0.2,0.1,0.4,0.1c-0.8-0.7-1.6-1.3-2.5-1.9l-2.4-2
			c-1.3-0.8-2.5-1.7-3.7-2.6c-1.1-0.9-2.2-1.7-2.9-2.6c-0.3-0.3-0.5-0.6-0.8-0.9c-0.5-0.5-1-1.1-1.5-1.6c-0.5-0.6-1-1.2-1.5-1.9l0,0
			c-0.7-0.2-0.1,1,0.5,2.1c0.6,1.1,1.2,2,0.4,1.3c-1.8-1.7-3.1-3.2-4.1-4.5s-1.6-2.3-2-3.1c-0.8-1.6-0.6-2.3,0.2-2.3
			c-9.2-11.7-16.2-24.9-20.8-38.6C327.6,392.9,331,401.9,335.3,410.4z"/>
		<path class="st27" d="M324.6,338.1c0-0.1,0.1-0.3,0.1-0.4c-0.1,0.3-0.1,0.6-0.2,0.9c-0.5,2.6-0.7,5.3-1,8c-0.1,1.3-0.2,2.7-0.3,4
			l-0.1,2v2c-0.2,5.3,0.1,10.6,0.6,15.9c0.3,2.2,0.4,4.4,0.8,6.6l0.5,3.3l0.7,3.2c4.7,13.7,11.6,26.8,20.8,38.6h0.1
			c-3.1-4.6-5.8-9.2-8.3-14.1s-4.7-10.2-6.6-16.1c-1.4-3.5-2.7-7.9-3.8-12.2c-1-4.4-1.7-8.7-1.8-12.1c-0.3-5.9-0.1-11.3,0.2-16.5
			c0.1-1.3,0.2-2.6,0.3-3.8c0.2-1.3,0.3-2.5,0.4-3.8c0.1-1.2,0.3-2.5,0.5-3.7s0.3-2.5,0.6-3.7c0.9-4.9,2.1-9.8,3.5-14.9
			c1.5-5.1,3.5-10.4,6-16c0.6-1,1.2-2,1.7-3c0.6-1,1.2-1.9,1.8-2.9c1.2-2,2.6-3.8,3.8-5.6c2.7-3.6,5.5-7.1,8.5-10.2
			c3-3.2,6.2-6.2,9.4-9c3.3-2.7,6.7-5.4,10.3-7.7c14.1-9.5,30-15.7,47.1-18.5c-5.4,0.7-10.8,1.8-16.3,3.3
			c-5.5,1.5-10.9,3.5-16.3,5.9c-1.3,0.6-2.7,1.2-4,1.9c-1.3,0.7-2.6,1.4-4,2.1c-1.3,0.7-2.6,1.5-3.9,2.2c-1.3,0.7-2.5,1.6-3.8,2.4
			c-5,3.3-9.8,7.1-14.3,11.2c-8.9,8.2-16.4,18-22.1,28.5C330.1,316.1,326.3,327.3,324.6,338.1z"/>
		<path class="st25" d="M538.1,329.9c-1.3-5-3.1-9.9-5-14.6c2.7,8.4,5,17.7,6.1,27.2c1,9.4,0.9,18.9-0.6,27
			c-0.1,1.3-0.1,2.7-0.2,4.1c-0.1-1,0-2.2,0.1-3.4c0,0.2-0.1,0.5-0.1,0.7c-0.8,7.4-2.4,14.7-4.7,21.8
			C541.4,373.4,543.3,351.1,538.1,329.9z"/>
		<path class="st28" d="M533.1,315.3c-0.3-1-0.7-2.1-1-3.1c2.6,5.7,4.6,11.6,6,17.7c3.3,12.5,4.4,25.6,3.1,38.5
			c-1.3,12.9-4.8,25.6-10.5,37.3c-5.7,11.7-13.6,22.3-23.1,31.3s-20.6,16.3-32.7,21.4c5.9-2,11.6-4.5,17.1-7.6
			c5.5-3.1,11-6.8,16.3-11.5l-1.3,1.2l-1.3,1.2c-0.9,0.8-1.8,1.5-2.7,2.3c-0.9,0.7-1.9,1.4-2.8,2.2l-1.4,1.1l-1.4,1
			c-1,0.7-1.9,1.3-2.9,2c-1,0.6-2,1.2-3,1.8c-1.9,1.2-4,2.2-6,3.3c-8.2,4.1-16.8,7-25.7,8.9c1.2-0.2,2.5-0.4,3.9-0.7
			c1.1-0.2,2.2-0.6,3.3-0.9l3.3-1l3.3-1.1l1.6-0.6l1.6-0.6l3.2-1.3c1.1-0.4,2.1-0.9,3.1-1.4c2.1-0.9,4.1-2,6.1-3.1
			c6.4-3.6,12.6-8.1,17.9-12.7c5.3-4.6,9.7-9.3,13.1-13.1c1.9-2.2,3.5-4.5,5.3-6.9c0.8-1.2,1.6-2.4,2.4-3.7c0.8-1.2,1.5-2.5,2.3-3.8
			c2.9-5.1,5.5-10.6,7.4-16.4c0.7-2.3,1.7-5.4,2.5-8.4c0.7-2.5,1.2-5.2,1.8-8c0.1-1.7,0.5-3.9,0.8-6.1c0.2-2.2,0.6-4.3,0.6-5.8
			c0.4-6.6,0.6-13.1,0.4-19.5c-0.1-0.6-0.1-1.3-0.2-1.9c-0.1-0.8-0.4-2.3-0.5-4.1c-0.1-0.9-0.1-1.8-0.2-2.7
			c-0.1-0.9-0.2-1.8-0.2-2.6l-0.4-2.5l-0.6-2.5c-0.4-1.7-0.7-3.3-1.2-4.9c-0.2-0.7-0.4-1.4-0.6-2.1c-0.4-1.4-0.9-2.8-1.3-4.2
			l-0.7-2.1l-0.8-2.1c-0.6-1-1-2.2-1.4-3.5c-5.2-12.8-12.9-24.6-22.3-34.7c-9.4-10.1-20.6-18.6-33-24.9c-9.7-5-23.1-7.7-36.3-7.8
			c-3.6,0.1-6.3,0.3-8.2,0.9c22.1,0.8,42.6,8.7,59.2,21.2C511.7,280.3,525.1,296.5,533.1,315.3z"/>
		<path class="st20" d="M533.7,392.6c2.3-7.1,3.9-14.4,4.7-21.8c-0.4,3.2-1.1,6.6-1.9,9.6c-1.1,5.7-2.8,11.4-4.8,16.9
			c0.4-0.8,0.7-1.5,1.1-2.3C533,394.2,533.3,393.4,533.7,392.6z"/>
		<path class="st20" d="M538.4,350.9c-0.1-1.9-0.1-3.8-0.3-5.7l-0.4-2.8c-0.1-0.9-0.3-1.8-0.5-2.8l-0.5-2.7l-0.6-2.7
			c0,0.1,0,0.1,0,0.2C537.3,339.8,538.1,345.3,538.4,350.9z"/>
		<path class="st29" d="M495,268.9c-9.2-6.3-19.3-11.1-29.9-14.3c-5.3-1.5-10.7-2.7-16.2-3.4c-5.5-0.7-11-0.9-16.5-0.8
			c0.4,0.6,1.5,1.1,3.3,1.4c0.7,0.3,1.6,0.5,2.5,0.7c1,0.2,2,0.4,3.2,0.5c0.6,0.1,1.2,0.1,1.8,0.2c0.6,0.1,1.3,0.2,1.9,0.2
			c1.3,0.2,2.8,0.2,4.2,0.4c0.1-0.3-6.9-0.9-2.9-0.8c2.5-0.3,8.4,0.5,13.2,1.9c0.9,0.3,1.7,0.5,2.4,0.8c0.3,0.1,0.7,0.1,1,0.2
			c0.4-0.1,0.9-0.2,1.8,0.4c0.9,0.2,2.7,0.8,4.9,1.7c1.1,0.5,2.3,1,3.6,1.5s2.6,1.2,3.9,1.8c5.2,2.6,10,5.6,11.4,6.5
			c0,0-0.2-0.1-0.5-0.4s-0.9-0.6-1.5-1c-0.6-0.4-1.3-0.9-2.1-1.4c-0.4-0.3-0.8-0.5-1.2-0.8c-0.4-0.2-0.8-0.5-1.3-0.8
			c-1.7-1-3.4-2-4.8-2.7c-1.3-0.7-2.2-1.1-2.2-1.1c0.8,0.3,1.7,0.6,2.6,1c-0.1,0-0.2,0-0.3,0.1c0.9,0.4,1.8,0.8,2.7,1.3
			c1.1,0.2,1.6,0,3.6,0.9c-1.5-0.8-1.5-0.8-3-1.7c2.5,0.7,6.9,3.3,9.7,5.3c-0.5,0-1.4-0.5-2.4-1c-1-0.6-2.1-1.2-2.8-1.7l1.4,0.9
			c-0.7-0.4-1.9-1.1-2.8-1.6c-0.9-0.4-1.5-0.6-1-0.1c0.8,0.6,3,1.8,4.8,2.7c0.4,0.2,0.8,0.4,1.1,0.6c0.1,0.1,0.2,0.1,0.3,0.2
			c-0.1-0.1-0.2-0.1-0.3-0.2c-0.3-0.2-0.7-0.4-1.1-0.6c-0.6-0.3-1.1-0.5-1.2-0.4c1.5,0.8,2.9,1.7,4.3,2.7c0.2,0.1,0.5,0.2,0.8,0.4
			c-0.3-0.2-0.7-0.5-1.1-0.8l1.4,1l-0.3-0.2c1.5,1,2.5,1.7,3.6,2.3c1.1,0.6,2.2,1.1,3.5,2.1c-1.7-1.1,0.1,0.8-1.2,0.1
			c0.3,0.2,0.6,0.5,0.9,0.7c0.7,0.5,1.4,1,2.2,1.5c0.7,0.6,1.4,1.2,2.2,1.8c2,1.4,3.8,2.8,5.6,4.1c-0.1,0.6-1.3-0.4-2.7-1.5
			c1.3,1.3,2.7,2.7,3.9,4.2c0.6,0.4,0.9,0.4,1.5,0.9c0.6,0.4,1.4,1.2,2.9,2.9c-0.4-0.1-0.7,0-1.2-0.2c2.3,2.6,4.4,5.3,6.4,8.1
			c0.4,0.5,0.9,1.1,1.3,1.6c0,0,0.5,0.2,1.4,1.6c-0.4-0.5-0.9-1-1.4-1.6l0,0c0.8,1.2,1.6,2.6,2.4,4c3,4.9,5.7,10.1,7.9,15.4
			c0-0.1,0-0.2,0-0.4c-0.1-0.2-0.1-0.4-0.2-0.6c0.1,0.2,0.2,0.4,0.2,0.6c0.4,1.2,0.8,2,1.3,2.9c0.4,0.9,0.9,1.8,1.2,3.1
			c-0.1-0.5-0.3-1.1-0.5-1.6c0.6,2.1,1.2,4,1.9,5.7c0.6,1.8,1.2,3.5,1.8,5.2c-1.5-6.7-3.7-13.4-6.6-19.6c-0.5-1.1-1-2.1-1.5-3.2
			s-1-2.1-1.6-3.1c-0.6-1-1.1-2.1-1.7-3.1c-0.6-1-1.2-2-1.8-3l-0.9-1.5l-1-1.4l-1.9-2.9l-2.1-2.8l-1-1.4l-1.1-1.3l-2.2-2.7l-2.3-2.6
			l-1.2-1.3l-1.2-1.2l-2.4-2.5C502.1,274.7,498.7,271.6,495,268.9z"/>
		<path class="st20" d="M536.6,334.5c-0.2-0.6-0.4-1.1-0.8-2.2c0.1,0.6,0.1,1.3,0.2,1.9l0.6,2.7l0.5,2.7c0.2,0.9,0.4,1.8,0.5,2.8
			l0.4,2.8l-0.2-2.7c-0.1-0.9-0.2-1.8-0.4-2.7l-0.4-2.7C537,336.3,536.8,335.4,536.6,334.5z"/>
		<path class="st30" d="M538.5,369.5v0.1C538.5,369.6,538.6,369.6,538.5,369.5c0-0.1,0-0.2,0-0.2c0-0.6,0.1-1.1,0.1-1.6
			c0,0.5-0.1,1.1-0.1,1.6v0.1c1.5-8.1,1.7-17.6,0.6-27c-1.1-9.4-3.4-18.8-6.1-27.2c-8-18.7-21.4-35-38.1-46.4
			c3.7,2.7,7.2,5.8,10.5,9l2.4,2.5l1.2,1.2l1.2,1.3l2.3,2.6l2.2,2.7l1.1,1.3l1,1.4l2.1,2.8l1.9,2.9l1,1.4l0.9,1.5c0.6,1,1.2,2,1.8,3
			s1.1,2.1,1.7,3.1c0.6,1,1.1,2.1,1.6,3.1c0.5,1.1,1,2.1,1.5,3.2c2.9,6.3,5.1,12.9,6.6,19.6c0.5,1.6,0.9,3.2,1.2,4.8
			c-0.3-0.8-0.4-1.3-0.6-1.7c0.2,0.9,0.4,1.8,0.5,2.6l0.4,2.7c0.1,0.9,0.3,1.8,0.4,2.7l0.2,2.7C539.2,353.2,539.3,361.4,538.5,369.5
			z"/>
		<path class="st31" d="M435.8,247.7c-3,0.8-4,1.9-3.5,2.7c5.5-0.1,11,0.1,16.5,0.8c5.5,0.7,10.9,1.9,16.2,3.4
			c10.6,3.2,20.8,7.9,29.9,14.3C478.4,256.4,457.9,248.5,435.8,247.7z"/>
		<path class="st31" d="M460.3,462.5c1.1-0.3,2.3-0.7,3.5-1s2.3-0.8,3.4-1.1c2.3-0.7,4.6-1.7,6.9-2.5c4.5-1.9,9.1-4,13.5-6.6
			c8.8-5,17-11.3,24.1-18.5l1.3-1.4l1.3-1.4c0.8-0.9,1.7-1.9,2.5-2.8c1.6-2,3.2-3.9,4.6-5.9c1.5-2,2.8-4.1,4.1-6.1
			c0.6-1,1.2-2.1,1.8-3.2l0.9-1.6l0.8-1.6c0.5-1.1,1.1-2.1,1.6-3.2s0.9-2.2,1.4-3.3c0.2-0.5,0.5-1.1,0.7-1.6
			c0.2-0.5,0.4-1.1,0.6-1.6c0.4-1.1,0.8-2.2,1.2-3.2c1.4-4.4,2.5-8.6,3.2-12.8c-1.6,5-3.7,10.3-6.2,15.6
			c-3.1,7.9-7.3,15.4-12.2,22.4c-4.9,7-10.7,13.3-17.2,18.8l-1.4,1.3l-1.5,1.2c-1,0.8-2,1.6-3,2.4l-3.1,2.2c-1,0.8-2.1,1.4-3.2,2.1
			c-1.1,0.7-2.2,1.4-3.3,2s-2.2,1.3-3.3,1.9c-2.3,1.2-4.6,2.4-6.9,3.4c-4,1.8-8.2,3.3-12.4,4.7c-4.2,1.2-8.5,2.3-12.8,3
			c0.5,0.5,1.7,0.8,3.6,0.9c6.9-1.4,13.7-3.6,20.2-6.3C470.2,459.9,465.5,461.4,460.3,462.5z"/>
		<path class="st32" d="M529.8,402c-3.1,7.2-7,14.1-11.7,20.4c-4.7,6.3-10,12.2-16,17.3c6.4-5.6,12.3-11.9,17.2-18.8
			c4.9-6.9,9.1-14.4,12.2-22.4C531,399.7,530.4,400.8,529.8,402z"/>
		<path class="st20" d="M536.5,380.4C536.5,380.5,536.5,380.5,536.5,380.4c-1.4,6.7-3.4,13.2-6.1,19.5c0.4-0.9,0.8-1.8,1.2-2.7
			C533.7,391.8,535.4,386.2,536.5,380.4z"/>
		<path class="st20" d="M533.7,392.6c-0.3,0.8-0.6,1.6-0.9,2.4c-0.4,0.8-0.7,1.5-1.1,2.3l-0.9,2.4l-1,2.3c0.6-1.1,1.2-2.3,1.8-3.5
			l1.1-2.9C533,394.6,533.3,393.6,533.7,392.6z"/>
		<path class="st20" d="M537.7,383c-0.6,4.2-1.8,8.5-3.2,12.8c-0.4,1.1-0.8,2.2-1.2,3.2c-0.2,0.5-0.4,1.1-0.6,1.6
			c-0.2,0.5-0.5,1.1-0.7,1.6c-0.5,1.1-0.9,2.2-1.4,3.3c-0.5,1.1-1.1,2.1-1.6,3.2l-0.8,1.6l-0.9,1.6c-0.6,1.1-1.2,2.1-1.8,3.2
			c-1.3,2.1-2.6,4.2-4.1,6.1c-1.4,2-3,4-4.6,5.9c-0.8,1-1.7,1.9-2.5,2.8l-1.3,1.4l-1.3,1.4c-7.1,7.3-15.3,13.5-24.1,18.5
			c-4.4,2.5-8.9,4.6-13.5,6.6c-2.3,0.9-4.6,1.8-6.9,2.5c-1.2,0.4-2.3,0.8-3.4,1.1c-1.2,0.3-2.3,0.7-3.5,1c5.2-1.1,10-2.6,14.6-4.1
			c12.1-5.1,23.2-12.5,32.7-21.4c9.5-9,17.3-19.6,23.1-31.3c5.7-11.7,9.3-24.4,10.5-37.3c1.3-12.9,0.2-26-3.1-38.5
			c5.2,21.2,3.2,43.5-4.5,62.7c-0.3,1-0.6,2-1,3l-1.1,2.9C534.1,393.3,536.1,388,537.7,383z"/>
		<rect x="341.8" y="325.6" class="st14" width="181.6" height="25.7"/>
		<text transform="matrix(0.9997 0 0 1 356.8118 343.7592)" class="st15 st16">Length of Stay</text>
		<text transform="matrix(0.9997 0 0 1 394.6405 385.8982)" class="st33 st18 st19">9.91</text>
		<text transform="matrix(0.9997 0 0 1 403.5501 412.8979)" class="st33 st34 st35">Days</text>
	</g>
	<path class="st36" d="M546.4,270.6l3-0.1c-0.6,0-1.1,0-1.7,0c-0.9,0-1.7,0-2.6,0C545.6,270.5,546,270.5,546.4,270.6z"/>
	<path class="st36" d="M550.7,270.4c-1,0-2,0-3,0c0.6,0,1.1,0,1.7,0C549.8,270.5,550.3,270.5,550.7,270.4z"/>
	<path class="st37" d="M325.9,117.6c0,0.2-0.1,0.3-0.1,0.4c0,0.2-0.1,0.4-0.1,0.5C325.8,118.2,325.8,117.9,325.9,117.6z"/>
	<path class="st37" d="M479.9,246.2c-1.1-1-2.3-1.9-3.3-3c-0.7-0.5-1.4-0.9-2.1-1.4l2.4,2c0.8,0.7,1.6,1.3,2.5,1.9
		C479.5,246,479.7,246.1,479.9,246.2z"/>
	<path class="st37" d="M550.7,270.4c-1,0-2,0-3,0c0.6,0,1.1,0,1.7,0C549.8,270.5,550.3,270.5,550.7,270.4z"/>
	<path class="st37" d="M546.4,270.6l3-0.1c-0.6,0-1.1,0-1.7,0c-0.9,0-1.7,0-2.6,0C545.6,270.5,546,270.5,546.4,270.6z"/>
	<g>
		<path class="st36" d="M523.8,203.3c-3,3.5-7.6,8.9-13.6,14.5c-6,5.6-13.3,11.3-21.1,15.6C503,225.9,514.9,215.4,523.8,203.3z"/>
		<path class="st36" d="M538.4,149.4c-0.3,1.5-0.6,3-1,4.4c-1.1,7.9-3.1,15.7-5.9,23.2c0.4-0.8,0.7-1.5,1.1-2.3
			c0.3-0.8,0.6-1.6,0.9-2.4C536,164.9,537.6,157.2,538.4,149.4z"/>
		<path class="st36" d="M529.7,181.6c-3.1,7.2-7,14.1-11.7,20.4c-4.7,6.3-10,12.2-16,17.3c6.4-5.6,12.3-11.9,17.2-18.8
			c4.9-6.9,9.1-14.4,12.2-22.4C530.9,179.4,530.3,180.5,529.7,181.6z"/>
		<path class="st36" d="M489.1,233.4c-2,1-4,2.1-6.1,3.1c-1,0.5-2.1,1-3.1,1.4l-3.2,1.3l-1.6,0.6l-1.6,0.6l-3.3,1.1l-3.3,1
			c-1.1,0.3-2.2,0.6-3.3,0.9c0.5-0.1,0.9-0.2,1.4-0.3c0.5-0.1,0.9-0.2,1.4-0.4c1-0.3,2-0.5,3-0.8s2-0.7,3.1-1
			c1.1-0.4,2.1-0.7,3.2-1.1C480.1,238.1,484.6,236,489.1,233.4z"/>
		<path class="st36" d="M476.2,235.8c2.4-1,4.6-2.2,6.9-3.4c1.1-0.6,2.2-1.3,3.3-1.9c1.1-0.6,2.2-1.3,3.3-2c1.1-0.7,2.2-1.4,3.2-2.1
			l3.1-2.2c1-0.8,2-1.6,3-2.4l1.5-1.2l1.4-1.3c-3.9,3.3-8,6.4-12.3,9.2c-1.1,0.7-2.2,1.4-3.3,2s-2.2,1.3-3.3,1.9
			C480.8,233.6,478.5,234.8,476.2,235.8z"/>
		<path class="st36" d="M532,91.9c0.3,1,0.7,2,1,3.1c2,4.8,3.7,9.6,5,14.6C536.6,103.5,534.5,97.6,532,91.9z"/>
		<path class="st36" d="M533,95c-8-18.7-21.4-35-38.1-46.4c3.7,2.7,7.2,5.8,10.5,9l2.4,2.5l1.2,1.2l1.2,1.3l2.3,2.6l2.2,2.7l1.1,1.3
			l1,1.4l2.1,2.8l1.9,2.9l1,1.4l0.9,1.5c0.6,1,1.2,2,1.8,3s1.1,2.1,1.7,3.1c0.6,1,1.1,2.1,1.6,3.1c0.5,1.1,1,2.1,1.5,3.2
			c2.4,5.2,4.3,10.7,5.8,16.3c0.3,1.4,0.8,2.8,1,4.2l0.8,4.2c0.4,2.9,0.9,5.7,1.1,8.6c1.1,8.1,1.3,16.4,0.4,24.5
			c1.6-8.1,1.7-17.6,0.7-27.1C538.1,112.8,535.7,103.4,533,95z"/>
		<path class="st36" d="M533.5,172.3c-0.3,1-0.6,2-1,3l-1.1,2.9c2.6-5.2,4.6-10.5,6.2-15.6c-0.6,4.2-1.8,8.5-3.2,12.8
			c-0.4,1.1-0.8,2.2-1.2,3.2c-0.2,0.5-0.4,1.1-0.6,1.6c-0.2,0.5-0.5,1.1-0.7,1.6c-0.5,1.1-0.9,2.2-1.4,3.3c-0.5,1.1-1.1,2.1-1.6,3.2
			l-0.8,1.6l-0.9,1.6c-0.6,1.1-1.2,2.1-1.8,3.2c-1.3,2.1-2.6,4.2-4.1,6.1c-1.4,2-3,4-4.6,5.9c-0.8,1-1.7,1.9-2.5,2.8l-1.3,1.4
			l-1.3,1.4c-7.1,7.3-15.3,13.5-24.1,18.5c-4.4,2.5-8.9,4.6-13.5,6.6c-2.3,0.9-4.6,1.8-6.9,2.5c-1.2,0.4-2.3,0.8-3.4,1.1
			c-1.2,0.3-2.3,0.7-3.5,1c5.2-1.1,10-2.6,14.6-4.1c12.1-5.1,23.2-12.5,32.7-21.4c9.5-9,17.3-19.6,23.1-31.3
			c5.7-11.7,9.3-24.4,10.5-37.3c1.3-12.9,0.2-26-3.1-38.5C543.2,130.8,541.2,153.1,533.5,172.3z"/>
		<path class="st36" d="M538.4,149.4c-0.8,7.8-2.4,15.5-4.9,22.9c7.7-19.2,9.6-41.5,4.5-62.7c-1.3-5-3.1-9.9-5-14.6
			c2.7,8.4,5.1,17.8,6.1,27.3C540.1,131.7,540,141.2,538.4,149.4z"/>
		<path class="st36" d="M533.5,172.3c-0.3,0.8-0.6,1.6-0.9,2.4c-0.4,0.8-0.7,1.5-1.1,2.3l-0.9,2.4l-1,2.3c0.6-1.1,1.2-2.3,1.8-3.5
			l1.1-2.9C532.9,174.3,533.2,173.3,533.5,172.3z"/>
		<path class="st36" d="M531.5,177c-0.6,1.2-1.1,2.4-1.7,3.5c-0.8,1.7-1.5,3.4-2.4,5.1c0.8-1.3,1.5-2.6,2.2-4l1-2.3L531.5,177z"/>
		<path class="st36" d="M537.4,153.8c0,0.1,0,0.2-0.1,0.2c-0.7,4.5-1.6,9-2.9,13.4c-0.6,2.2-1.4,4.4-2.1,6.6
			c-0.4,1.1-0.8,2.2-1.2,3.2c-0.4,1.1-0.8,2.2-1.3,3.2c0.6-1.2,1.1-2.4,1.7-3.5C534.4,169.5,536.4,161.7,537.4,153.8z"/>
		<path class="st36" d="M529.3,91.5c-0.5-1.1-1-2.1-1.5-3.2s-1-2.1-1.6-3.1c-0.6-1-1.1-2.1-1.7-3.1c-0.6-1-1.2-2-1.8-3l-0.9-1.5
			l-1-1.4l-1.9-2.9l-2.1-2.8l-1-1.4l-1.1-1.3l-2.2-2.7l-2.3-2.6l-1.2-1.3l-1.2-1.2l-2.4-2.5c-3.4-3.1-6.8-6.2-10.5-9
			c-9-6.2-18.9-10.9-29.3-14.1c-5.2-1.5-10.5-2.8-15.9-3.5c-1.3-0.2-2.7-0.3-4-0.5c-1.3-0.1-2.7-0.3-4-0.3l-4-0.2h-4
			c0.3,0.6,1.4,1.2,3.3,1.5c3.4,1.5,9.8,1.7,17.1,2.7s15.5,2.8,22.1,5.7c7.1,3.2,14,7.2,20.3,12s12.1,10.3,17.2,16.4
			c10.3,12.2,17.6,26.8,21.6,42c1.3,4.7,2.3,9.5,2.9,14.4c-0.2-2.9-0.6-5.7-1.1-8.6l-0.8-4.2c-0.3-1.4-0.7-2.8-1-4.2
			C533.6,102.2,531.7,96.7,529.3,91.5z"/>
		<path class="st36" d="M437.3,27.4c-3,0.8-4.1,1.8-3.7,2.7h4l4,0.2c1.4,0,2.7,0.2,4,0.3c1.3,0.2,2.7,0.2,4,0.5
			c5.4,0.7,10.7,1.9,15.9,3.5c10.4,3.1,20.3,7.9,29.3,14.1C478.7,36.3,458.8,28.5,437.3,27.4z"/>
		<path class="st37" d="M476.2,235.8c2.4-1,4.6-2.2,6.9-3.4c1.1-0.6,2.2-1.3,3.3-1.9c1.1-0.6,2.2-1.3,3.3-2c1.1-0.7,2.2-1.4,3.2-2.1
			l3.1-2.2c1-0.8,2-1.6,3-2.4l1.5-1.2l1.4-1.3c-3.9,3.3-8,6.4-12.3,9.2c-1.1,0.7-2.2,1.4-3.3,2s-2.2,1.3-3.3,1.9
			C480.8,233.6,478.5,234.8,476.2,235.8z"/>
		<path class="st37" d="M532,91.9c0.3,1,0.7,2,1,3.1c2,4.8,3.7,9.6,5,14.6C536.6,103.5,534.5,97.6,532,91.9z"/>
		<path class="st37" d="M531.5,177c-0.4,0.9-0.8,1.8-1.2,2.7c-0.2,0.5-0.4,0.9-0.6,1.3c-0.3,0.8-0.7,1.6-1,2.4
			c0.3-0.6,0.6-1.2,0.9-1.8l1-2.3L531.5,177z"/>
		<path class="st38" d="M538,109.6c-1.3-5-3.1-9.9-5-14.6c2.7,8.4,5,17.7,6.1,27.2c1,9.4,0.9,18.9-0.6,27c-0.1,1.3-0.1,2.7-0.2,4.1
			c-0.1-1,0-2.2,0.1-3.4c0,0.2-0.1,0.5-0.1,0.7c-0.8,7.4-2.4,14.7-4.7,21.8C541.2,153.1,543.2,130.8,538,109.6z"/>
		<path class="st39" d="M533,95c-0.3-1-0.7-2.1-1-3.1c2.6,5.7,4.6,11.6,6,17.7c3.3,12.5,4.4,25.6,3.1,38.5
			c-1.3,12.9-4.8,25.6-10.5,37.3s-13.6,22.3-23.1,31.3c-9.5,9-20.6,16.3-32.7,21.4c5.9-2,11.6-4.5,17.1-7.6
			c5.5-3.1,11-6.8,16.3-11.5l-1.3,1.2l-1.3,1.2c-0.9,0.8-1.8,1.5-2.7,2.3c-0.9,0.7-1.9,1.4-2.8,2.2l-1.4,1.1l-1.4,1
			c-1,0.7-1.9,1.3-2.9,2c-1,0.6-2,1.2-3,1.8c-1.9,1.2-4,2.2-6,3.3c-8.2,4.1-16.8,7-25.7,8.9c1.2-0.2,2.5-0.4,3.9-0.7
			c1.1-0.2,2.2-0.6,3.3-0.9l3.3-1l3.3-1.1l1.6-0.6l1.6-0.6l3.2-1.3c1.1-0.4,2.1-0.9,3.1-1.4c2.1-0.9,4.1-2,6.1-3.1
			c6.4-3.6,12.6-8.1,17.9-12.7c5.3-4.6,9.7-9.3,13.1-13.1c1.9-2.2,3.5-4.5,5.3-6.9c0.8-1.2,1.6-2.4,2.4-3.7c0.8-1.2,1.5-2.5,2.3-3.8
			c2.9-5.1,5.5-10.6,7.4-16.4c0.7-2.3,1.7-5.4,2.5-8.4c0.7-2.5,1.2-5.2,1.8-8c0.1-1.7,0.5-3.9,0.8-6.1c0.2-2.2,0.6-4.3,0.6-5.8
			c0.4-6.6,0.6-13.1,0.4-19.5c-0.1-0.6-0.1-1.3-0.2-1.9c-0.1-0.8-0.4-2.3-0.5-4.1c-0.1-0.9-0.1-1.8-0.2-2.7
			c-0.1-0.9-0.2-1.8-0.2-2.6l-0.4-2.5l-0.6-2.5c-0.4-1.7-0.7-3.3-1.2-4.9c-0.2-0.7-0.4-1.4-0.6-2.1c-0.4-1.4-0.9-2.8-1.3-4.2
			l-0.7-2.1l-0.8-2.1c-0.6-1-1-2.2-1.4-3.5c-5.2-12.8-12.9-24.6-22.3-34.7c-9.4-10.1-20.6-18.6-33-24.9c-9.7-5-23.1-7.7-36.3-7.8
			c-3.6,0.1-6.3,0.3-8.2,0.9c22.1,0.8,42.6,8.7,59.2,21.2C511.6,59.9,525,76.2,533,95z"/>
		<path class="st37" d="M497.5,228.4l-0.1,0.4l1.6-1.1l1.6-1.2c1-0.8,2.1-1.6,3.1-2.4c-1,0.8-2,1.5-3,2.2l-1.5,1.1L497.5,228.4z"/>
		<path class="st37" d="M533.5,172.3c2.3-7.1,3.9-14.4,4.7-21.8c-0.4,3.2-1.1,6.6-1.9,9.6c-1.1,5.7-2.8,11.4-4.8,16.9
			c0.4-0.8,0.7-1.5,1.1-2.3C532.9,173.9,533.2,173.1,533.5,172.3z"/>
		<path class="st37" d="M489.1,233.4c1.3-0.7,2.6-1.5,3.9-2.2c1.3-0.7,2.5-1.5,3.7-2.3c0.3-0.2,0.5-0.4,0.8-0.6v0.1l1.6-1l1.5-1.1
			c1-0.7,2-1.5,3-2.2c6.1-5,11.6-10.4,16.5-16.4c-3.4,3.8-7.8,8.5-13.1,13.1C501.7,225.3,495.5,229.8,489.1,233.4z"/>
		<path class="st40" d="M494.9,48.5c-9.2-6.3-19.3-11.1-29.9-14.3c-5.3-1.5-10.7-2.7-16.2-3.4c-5.5-0.7-11-0.9-16.5-0.8
			c0.4,0.6,1.5,1.1,3.3,1.4c0.7,0.3,1.6,0.5,2.5,0.7c1,0.2,2,0.4,3.2,0.5c0.6,0.1,1.2,0.1,1.8,0.2c0.6,0.1,1.3,0.2,1.9,0.2
			c1.3,0.2,2.8,0.2,4.2,0.4c0.1-0.3-6.9-0.9-2.9-0.8c2.5-0.3,8.4,0.5,13.2,1.9c0.9,0.3,1.7,0.5,2.4,0.8c0.3,0.1,0.7,0.1,1,0.2
			c0.4-0.1,0.9-0.2,1.8,0.4c0.9,0.2,2.7,0.8,4.9,1.7c1.1,0.5,2.3,1,3.6,1.5s2.6,1.2,3.9,1.8c5.2,2.6,10,5.6,11.4,6.5
			c0,0-0.2-0.1-0.5-0.4c-0.3-0.3-0.9-0.6-1.5-1c-0.6-0.4-1.3-0.9-2.1-1.4c-0.4-0.3-0.8-0.5-1.2-0.8c-0.4-0.2-0.8-0.5-1.3-0.8
			c-1.7-1-3.4-2-4.8-2.7c-1.3-0.7-2.2-1.1-2.2-1.1c0.8,0.3,1.7,0.6,2.6,1c-0.1,0-0.2,0-0.3,0.1c0.9,0.4,1.8,0.8,2.7,1.3
			c1.1,0.2,1.6,0,3.6,0.9c-1.5-0.8-1.5-0.8-3-1.7c2.5,0.7,6.9,3.3,9.7,5.3c-0.5,0-1.4-0.5-2.4-1c-1-0.6-2.1-1.2-2.8-1.7l1.4,0.9
			c-0.7-0.4-1.9-1.1-2.8-1.6c-0.9-0.4-1.5-0.6-1-0.1c0.8,0.6,3,1.8,4.8,2.7c0.4,0.2,0.8,0.4,1.1,0.6c0.1,0.1,0.2,0.1,0.3,0.2
			c-0.1-0.1-0.2-0.1-0.3-0.2c-0.3-0.2-0.7-0.4-1.1-0.6c-0.6-0.3-1.1-0.5-1.2-0.4c1.5,0.8,2.9,1.7,4.3,2.7c0.2,0.1,0.5,0.2,0.8,0.4
			c-0.3-0.2-0.7-0.5-1.1-0.8l1.4,1l-0.3-0.2c1.5,1,2.5,1.7,3.6,2.3s2.2,1.1,3.5,2.1c-1.7-1.1,0.1,0.8-1.2,0.1
			c0.3,0.2,0.6,0.5,0.9,0.7c0.7,0.5,1.4,1,2.2,1.5c0.7,0.6,1.4,1.2,2.2,1.8c2,1.4,3.8,2.8,5.6,4.1c-0.1,0.6-1.3-0.4-2.7-1.5
			c1.3,1.3,2.7,2.7,3.9,4.2c0.6,0.4,0.9,0.4,1.5,0.9c0.6,0.4,1.4,1.2,2.9,2.9c-0.4-0.1-0.7,0-1.2-0.2c2.3,2.6,4.4,5.3,6.4,8.1
			c0.4,0.5,0.9,1.1,1.3,1.6c0,0,0.5,0.2,1.4,1.6c-0.4-0.5-0.9-1-1.4-1.6l0,0c0.8,1.2,1.6,2.6,2.4,4c3,4.9,5.7,10.1,7.9,15.4
			c0-0.1,0-0.2,0-0.4c-0.1-0.2-0.1-0.4-0.2-0.6c0.1,0.2,0.2,0.4,0.2,0.6c0.4,1.2,0.8,2,1.3,2.9c0.4,0.9,0.9,1.8,1.2,3.1
			c-0.1-0.5-0.3-1.1-0.5-1.6c0.6,2.1,1.2,4,1.9,5.7c0.6,1.8,1.2,3.5,1.8,5.2c-1.5-6.7-3.7-13.4-6.6-19.6c-0.5-1.1-1-2.1-1.5-3.2
			c-0.5-1.1-1-2.1-1.6-3.1s-1.1-2.1-1.7-3.1c-0.6-1-1.2-2-1.8-3l-0.9-1.5l-1-1.4l-1.9-2.9l-2.1-2.8l-1-1.4l-1.1-1.3l-2.2-2.7
			l-2.3-2.6l-1.2-1.3l-1.2-1.2l-2.4-2.5C502,54.4,498.6,51.3,494.9,48.5z"/>
		<path class="st41" d="M538.4,149.2v0.1C538.4,149.3,538.4,149.2,538.4,149.2c0-0.1,0-0.2,0-0.2c0-0.6,0.1-1.1,0.1-1.6
			c0,0.5-0.1,1.1-0.1,1.6V149.2c1.5-8.2,1.7-17.7,0.6-27.1c-1.1-9.4-3.4-18.8-6.1-27.2c-8-18.7-21.4-35-38.1-46.4
			c3.7,2.7,7.2,5.8,10.5,9l2.4,2.5l1.2,1.2l1.2,1.3l2.3,2.6l2.2,2.7l1.1,1.3l1,1.4l2.1,2.8l1.9,2.9l1,1.4l0.9,1.5c0.6,1,1.2,2,1.8,3
			c0.6,1,1.1,2.1,1.7,3.1c0.6,1,1.1,2.1,1.6,3.1c0.5,1.1,1,2.1,1.5,3.2c2.9,6.3,5.1,12.9,6.6,19.6c0.5,1.6,0.9,3.2,1.2,4.8
			c-0.3-0.8-0.4-1.3-0.6-1.7c0.2,0.9,0.4,1.8,0.5,2.6l0.4,2.7c0.1,0.9,0.3,1.8,0.4,2.7l0.2,2.7C539,132.9,539.2,141.1,538.4,149.2z"
			/>
		<path class="st42" d="M435.7,27.4c-3,0.8-4,1.9-3.5,2.7c5.5-0.1,11,0.1,16.5,0.8c5.5,0.7,10.9,1.9,16.2,3.4
			c10.6,3.2,20.8,7.9,29.9,14.3C478.3,36,457.8,28.2,435.7,27.4z"/>
		<path class="st43" d="M529.7,181.6c-3.1,7.2-7,14.1-11.7,20.4c-4.7,6.3-10,12.2-16,17.3c6.4-5.6,12.3-11.9,17.2-18.8
			c4.9-6.9,9.1-14.4,12.2-22.4C530.9,179.4,530.3,180.5,529.7,181.6z"/>
		<path class="st37" d="M536.4,160.1L536.4,160.1c-1.4,6.7-3.4,13.2-6.1,19.5c0.4-0.9,0.8-1.8,1.2-2.7
			C533.6,171.5,535.3,165.9,536.4,160.1z"/>
		<path class="st44" d="M489.1,233.4c-2,1-4,2.1-6.1,3.1c-1,0.5-2.1,1-3.1,1.4l-3.2,1.3l-1.6,0.6l-1.6,0.6l-3.3,1.1l-3.3,1
			c-1.1,0.3-2.2,0.6-3.3,0.9c0.5-0.1,0.9-0.2,1.4-0.3c0.5-0.1,0.9-0.2,1.4-0.4c1-0.3,2-0.5,3-0.8s2-0.7,3.1-1
			c1.1-0.4,2.1-0.7,3.2-1.1C480.1,238.1,484.6,236,489.1,233.4z"/>
		<path class="st37" d="M533.5,172.3c-0.3,0.8-0.6,1.6-0.9,2.4c-0.4,0.8-0.7,1.5-1.1,2.3l-0.9,2.4l-1,2.3c0.6-1.1,1.2-2.3,1.8-3.5
			l1.1-2.9C532.9,174.3,533.2,173.3,533.5,172.3z"/>
		<path class="st37" d="M537.6,162.6c-0.6,4.2-1.8,8.5-3.2,12.8c-0.4,1.1-0.8,2.2-1.2,3.2c-0.2,0.5-0.4,1.1-0.6,1.6
			c-0.2,0.5-0.5,1.1-0.7,1.6c-0.5,1.1-0.9,2.2-1.4,3.3c-0.5,1.1-1.1,2.1-1.6,3.2l-0.8,1.6l-0.9,1.6c-0.6,1.1-1.2,2.1-1.8,3.2
			c-1.3,2.1-2.6,4.2-4.1,6.1c-1.4,2-3,4-4.6,5.9c-0.8,1-1.7,1.9-2.5,2.8l-1.3,1.4l-1.3,1.4c-7.1,7.3-15.3,13.5-24.1,18.5
			c-4.4,2.5-8.9,4.6-13.5,6.6c-2.3,0.9-4.6,1.8-6.9,2.5c-1.2,0.4-2.3,0.8-3.4,1.1c-1.2,0.3-2.3,0.7-3.5,1c5.2-1.1,10-2.6,14.6-4.1
			c12.1-5.1,23.2-12.5,32.7-21.4c9.5-9,17.3-19.6,23.1-31.3c5.7-11.7,9.3-24.4,10.5-37.3c1.3-12.9,0.2-26-3.1-38.5
			c5.2,21.2,3.2,43.5-4.5,62.7c-0.3,1-0.6,2-1,3l-1.1,2.9C534,173,536,167.7,537.6,162.6z"/>
		<ellipse class="st6" cx="431.6" cy="138.1" rx="109.9" ry="109.9"/>
		<path class="st36" d="M459,244.2c-2,0.2-3.8,0.3-5.2,0.3c-1.9,0.4-3.8,0.7-5.7,1c-1.9,0.2-3.8,0.5-5.7,0.7
			c-1.7,0.1-3.4,0.3-5.1,0.4C444.8,246.5,452,245.7,459,244.2z"/>
		<path class="st36" d="M459.5,242.4c1.1-0.3,2.3-0.7,3.5-1s2.3-0.8,3.4-1.1c2.3-0.7,4.6-1.7,6.9-2.5c4.5-1.9,9.1-4,13.5-6.6
			c8.8-5,17-11.3,24.1-18.5l1.3-1.4l1.3-1.4c0.8-0.9,1.7-1.9,2.5-2.8c1.6-2,3.2-3.9,4.6-5.9c1.5-2,2.8-4.1,4.1-6.1
			c0.6-1,1.2-2.1,1.8-3.2l0.9-1.6l0.8-1.6c0.5-1.1,1.1-2.1,1.6-3.2c0.5-1.1,0.9-2.2,1.4-3.3c0.2-0.5,0.5-1.1,0.7-1.6
			s0.4-1.1,0.6-1.6c0.4-1.1,0.8-2.2,1.2-3.2c1.4-4.4,2.5-8.6,3.2-12.8c-1.6,5-3.7,10.3-6.2,15.6c-3.1,7.9-7.3,15.4-12.2,22.4
			c-4.9,7-10.7,13.3-17.2,18.8l-1.4,1.3l-1.5,1.2c-1,0.8-2,1.6-3,2.4l-3.1,2.2c-1,0.8-2.1,1.4-3.2,2.1c-1.1,0.7-2.2,1.4-3.3,2
			s-2.2,1.3-3.3,1.9c-2.3,1.2-4.6,2.4-6.9,3.4c-4,1.8-8.2,3.3-12.4,4.7c-4.2,1.2-8.5,2.3-12.8,3c0.5,0.5,1.7,0.8,3.6,0.9
			c6.9-1.4,13.7-3.6,20.2-6.3C469.4,239.8,464.6,241.3,459.5,242.4z"/>
		<path class="st36" d="M507.5,219.2c-5.3,4.7-10.7,8.4-16.3,11.5c-5.5,3.1-11.2,5.5-17.1,7.6c-6.5,2.7-13.3,4.9-20.2,6.3
			c1.4,0,3.1-0.1,5.2-0.3c8.9-1.9,17.6-4.8,25.7-8.9c2-1.1,4.1-2.1,6-3.3c1-0.6,2-1.2,3-1.8c1-0.7,1.9-1.3,2.9-2l1.4-1l1.4-1.1
			c0.9-0.7,1.8-1.4,2.8-2.2c0.9-0.8,1.8-1.5,2.7-2.3l1.3-1.2L507.5,219.2z"/>
		<path class="st36" d="M450.1,243.5c0,0.1,0.1,0.1,0.2,0.2c4.3-0.7,8.6-1.8,12.8-3c4.2-1.3,8.4-2.8,12.4-4.7
			c-4,1.8-8.2,3.3-12.4,4.6l-3.2,0.9l-1.6,0.4l-1.6,0.3l-3.2,0.7C452.3,243.2,451.2,243.3,450.1,243.5z"/>
		<path class="st36" d="M434.4,246.8c1,0,2,0,3,0c1.7-0.1,3.4-0.3,5.1-0.4c1.9-0.2,3.8-0.5,5.7-0.7c1.9-0.3,3.8-0.6,5.7-1
			c-1.9,0-3.2-0.4-3.6-0.9c-9.5,1.7-19.1,1.9-28.6,1c-1.2-0.1-2.4-0.3-3.5-0.4c-1.2-0.2-2.4-0.3-3.5-0.5c-2.3-0.5-4.7-0.8-7-1.5
			c-4.6-1.1-9.1-2.6-13.5-4.3c-1.2-0.4-2.4-0.8-3.5-1.2c-1.2-0.4-2.2-0.9-3.4-1.3c7.3,3.5,14.9,6.3,22.9,8.2
			C418.1,245.6,426.3,246.6,434.4,246.8z"/>
		<path class="st36" d="M450.1,243.5c1.1-0.2,2.2-0.3,3.3-0.5l3.2-0.7l1.6-0.3l1.6-0.4l3.2-0.9c4.2-1.3,8.4-2.8,12.4-4.6
			c2.4-1,4.6-2.2,6.9-3.4c1.1-0.6,2.2-1.3,3.3-1.9c1.1-0.6,2.2-1.3,3.3-2c4.3-2.7,8.5-5.8,12.3-9.2c5.9-5.2,11.3-11,16-17.3
			c4.6-6.4,8.5-13.2,11.7-20.4c-0.7,1.3-1.4,2.7-2.2,4c-5.2,10.4-12.4,20.2-21.5,28.7c-10.2,9.9-21,16.7-32.4,21.7
			c-11.5,4.8-23.7,7.7-37.5,8c-5.8,0.3-12.8,0-20-1.1c-7.2-1-14.6-2.9-21.3-5.1c4.4,1.7,8.9,3.2,13.5,4.3c2.3,0.6,4.6,1,7,1.5
			c1.2,0.2,2.4,0.3,3.5,0.5c1.2,0.2,2.4,0.4,3.5,0.4c9.5,0.9,19.2,0.7,28.6-1C450.2,243.6,450.1,243.6,450.1,243.5z"/>
		<path class="st36" d="M334.9,191c7.7,13.7,18.3,25.6,31,34.9c12.7,9.2,27.4,15.6,42.8,18.8c-15-4-28.8-11.1-40.5-20.8
			c-1.5-1.1-2.9-2.2-4.3-3.4s-2.7-2.4-4.1-3.5c-1.2-0.8-2.3-1.7-3.4-2.5s-2-1.7-2.7-2.6c-1.3-1.4-2.5-2.9-3.6-4.3
			c-1.2-1.4-2.2-2.9-3.3-4.3c-9.8-12-17-25.6-21.8-39.7l0.4,1.8l0.5,1.8l0.9,3.5l1.1,3.5l0.6,1.7l0.6,1.7l1.3,3.4l1.4,3.4
			c0.5,1.1,1,2.2,1.5,3.3C333.8,188.8,334.3,189.9,334.9,191z"/>
		<path class="st36" d="M322.8,148.9c0.5,4.9,1.1,9.9,2.2,14.7c4.8,14.1,12.1,27.7,21.8,39.7c-3.5-5-6.5-10-9.2-15.3
			c-2.7-5.4-5.1-11.1-7.1-17.5c-1.2-3.5-2.6-5.9-3.6-8.4c-0.6-1.2-1.1-2.4-1.5-3.7c-0.4-1.3-0.8-2.8-1-4.5
			c-1.3-11.9-0.4-25.5,2.8-38.6c3.2-13.1,8.6-25.4,14.5-36.1c4.4-7.3,10.3-14.4,17-20.9c6.8-6.4,14.6-12.3,23-16.8
			c4.1-2.4,8.5-4.3,12.7-6c2.2-0.8,4.3-1.7,6.5-2.3c1.1-0.4,2.2-0.7,3.2-1c1.1-0.3,2.2-0.6,3.2-0.9c8.6-2.3,16.8-3.5,24.2-4
			c-18.2,0.3-35.2,4.9-49.7,12.5s-26.6,18-35.8,29.8c-9.3,11.8-15.8,25-19.6,38.5C322.7,121.5,321.5,135.4,322.8,148.9z"/>
		<path class="st36" d="M473.1,241.5c-7.2,2.6-14.2,4.2-20.8,5c-6.7,0.9-13.1,1-19.1,0.4c-8.3,0.2-16.5-0.5-24.6-2.2
			C429.1,250.1,451.8,249.4,473.1,241.5z"/>
		<path class="st36" d="M431.9,246.8c0.9,0,1.7,0,2.6,0c-8.2-0.1-16.4-1.2-24.3-3c-7.9-1.9-15.6-4.7-22.9-8.2
			c-0.5-0.2-1.1-0.4-1.6-0.6c-4.1-1.8-8.5-4.4-12.8-7.7c-1.6-1-3.1-2.2-4.7-3.3c11.7,9.6,25.5,16.8,40.5,20.8
			c8,1.7,16.3,2.4,24.6,2.2C432.7,246.8,432.3,246.8,431.9,246.8z"/>
		<path class="st36" d="M462.9,243.5c-1.4,0.3-2.7,0.5-3.9,0.7c-7,1.5-14.3,2.3-21.6,2.5c-0.4,0-0.9,0-1.3,0
			C445.1,246.9,454.2,245.7,462.9,243.5z"/>
		<path class="st36" d="M532.3,95.2c-0.3-1-0.7-2.1-1-3.1c2.6,5.7,4.6,11.6,6,17.7c3.3,12.5,4.4,25.6,3.1,38.5
			c-1.3,12.9-4.8,25.6-10.5,37.3s-13.6,22.3-23.1,31.3c-9.5,9-20.6,16.3-32.7,21.4c5.9-2,11.6-4.5,17.1-7.6
			c5.5-3.1,11-6.8,16.3-11.5l-1.3,1.2l-1.3,1.2c-0.9,0.8-1.8,1.5-2.7,2.3c-0.9,0.7-1.9,1.4-2.8,2.2l-1.4,1.1l-1.4,1
			c-1,0.7-1.9,1.3-2.9,2c-1,0.6-2,1.2-3,1.8c-1.9,1.2-4,2.2-6,3.3c-8.2,4.1-16.8,7-25.7,8.9c1.2-0.2,2.5-0.4,3.9-0.7
			c1.1-0.2,2.2-0.6,3.3-0.9l3.3-1l3.3-1.1l1.6-0.6l1.6-0.6l3.2-1.3c1.1-0.4,2.1-0.9,3.1-1.4c2.1-0.9,4.1-2,6.1-3.1
			c7.8-4.4,15.2-10.1,21.1-15.6c6-5.6,10.5-11,13.6-14.5c-8.9,12.1-20.8,22.6-34.7,30.1c-4.5,2.5-9,4.6-13.4,6.3
			c-1.1,0.4-2.2,0.8-3.2,1.1c-1.1,0.3-2.1,0.7-3.1,1c-1,0.3-2,0.5-3,0.8c-0.5,0.1-1,0.2-1.4,0.4c-0.5,0.1-0.9,0.2-1.4,0.3
			c-8.7,2.1-17.8,3.3-26.8,3.2l-3,0.1c6.1,0.6,12.5,0.5,19.1-0.4c6.7-0.9,13.6-2.5,20.8-5c-21.3,8-44.1,8.6-64.6,3.2
			c-15.4-3.1-30.1-9.6-42.8-18.8s-23.3-21.2-31-34.9c5.6,10.7,12.9,20.4,21.6,28.8c8.8,8.3,18.8,15.3,30,20.4
			c22.2,10.4,48.4,13,73.4,6.7c5.2-1.2,10.5-2.9,15.7-5.1c5.2-2.2,10.3-5,15.1-8c6.6-4.4,13.1-9.1,19-14.4
			c6-5.3,11.4-11.3,15.7-18.1c8.4-13.3,14.2-28.4,16.7-44.2c2.5-15.8,1.9-32.2-2.2-47.8S528.1,78.6,518,65.9
			c-10.1-12.7-22.9-23.3-37.3-30.9c-4.8-2.5-10.6-4.5-16.7-6c-6.2-1.4-12.8-2.1-19.4-2.3c-1.8-0.1-3.3,0.1-4.7,0.2
			c-1.4,0.2-2.5,0.3-3.5,0.6c21.5,1.1,41.4,8.9,57.6,21.1C510.9,60.1,524.3,76.4,532.3,95.2z"/>
		<path class="st37" d="M403.1,240.7c-0.2-0.1-0.4-0.1-0.7-0.2c0,0.1,0.2,0.3,0.3,0.4c1.2,0.4,2.4,0.7,3.6,1
			c-0.5-0.2-1.1-0.3-1.6-0.6C404.2,241.1,403.7,240.9,403.1,240.7z"/>
		<path class="st38" d="M450.1,243.5c1.1-0.2,2.2-0.3,3.3-0.5l3.2-0.7l1.6-0.3l1.6-0.4l3.2-0.9c4.2-1.3,8.4-2.8,12.4-4.6
			c2.4-1,4.6-2.2,6.9-3.4c1.1-0.6,2.2-1.3,3.3-1.9c1.1-0.6,2.2-1.3,3.3-2c4.3-2.7,8.5-5.8,12.3-9.2c5.9-5.2,11.3-11,16-17.3
			c4.6-6.4,8.5-13.2,11.7-20.4c-0.3,0.6-0.6,1.2-0.9,1.8c-0.4,1.1-1,2.1-1.4,3.1c-0.5,1-1,2.1-1.6,3.1c0.3-0.6,0.6-1.3,0.8-1.9
			c-0.3,0.5-0.6,1.1-1,1.7c-3.1,5.6-6.8,11-11.1,16.1c-1.1,1.4-2.2,2.7-3.3,3.8s-2.1,2.1-3,2.9c-0.4,0.3-0.7,0.7-1,1
			c-9.9,9.8-20.4,16.8-31.5,21.8c0,0.1-0.1,0.3-0.2,0.5c-1.3,0.6-2.7,1-4.1,1.5c-1.4,0.5-2.7,0.9-4.1,1.3
			c-6.5,2.3-13.3,3.9-20.5,4.8c-1,0.4,2.9,0.3,1,0.7c-0.2,0-0.5,0.1-0.7,0.1c1.3-0.1,2.7-0.4,4-0.6
			C450.2,243.6,450.1,243.6,450.1,243.5z"/>
		<path class="st37" d="M402.6,241.6c5.1,1.6,10.4,2.9,15.8,3.7l2,0.3c0.7,0.1,1.3,0.2,2,0.2c1.3,0.1,2.7,0.3,4,0.5
			c2.7,0.2,5.4,0.4,8.1,0.4c1,0,2,0,3,0c1.7-0.1,3.4-0.3,5.1-0.4c1.9-0.2,3.8-0.5,5.7-0.7c1.9-0.3,3.8-0.6,5.7-1
			c-1.9,0-3.2-0.4-3.6-0.9c-1.3,0.2-2.7,0.5-4,0.6c-1.3,0.2-2.4,0.3-3.4,0.4c-5.7,0.5-11.4,0.6-17.1,0.3c-5.7-0.4-11.3-1.2-16.9-2.5
			c-0.8-0.1-1.7-0.4-2.6-0.6c-1.2-0.3-2.4-0.6-3.6-1C403.1,241.3,403.5,241.7,402.6,241.6z"/>
		<path class="st45" d="M334.4,190.3c7.6,13.9,18.3,26,31.1,35.4c12.7,9.4,27.6,15.9,43.1,19c-5.6-1.4-11.1-3.5-16.4-5.8
			c-5.3-2.4-10.3-5.1-15.1-8.3c-0.7-0.4-1.5-0.8-2.2-1.3c0.4,0.2,0.7,0.4,1,0.6c-0.9-0.6-1.7-1.2-2.6-1.9c-0.5-0.1-0.7,0-0.8,0.4
			c-1.2-0.9-3.3-2.6-5-3.8c-1.6-1.3-2.8-2.5-2.1-2.4c0.1,0,0.2,0.1,0.4,0.1c-0.8-0.7-1.6-1.3-2.5-1.9l-2.4-2
			c-1.3-0.8-2.5-1.7-3.7-2.6c-1.1-0.9-2.2-1.7-2.9-2.6c-0.3-0.3-0.5-0.6-0.8-0.9c-0.5-0.5-1-1.1-1.5-1.6c-0.5-0.6-1-1.2-1.5-1.9l0,0
			c-0.7-0.2-0.1,1,0.5,2.1c0.6,1.1,1.2,2,0.4,1.3c-1.8-1.7-3.1-3.2-4.1-4.5c-1-1.3-1.6-2.3-2-3.1c-0.8-1.6-0.6-2.3,0.2-2.3
			c-9.2-11.7-16.2-24.9-20.8-38.6C326.8,172.8,330.2,181.8,334.4,190.3z"/>
		<path class="st46" d="M323.8,118c0-0.1,0.1-0.3,0.1-0.4c-0.1,0.3-0.1,0.6-0.2,0.9c-0.5,2.6-0.7,5.3-1,8c-0.1,1.3-0.2,2.7-0.3,4
			l-0.1,2v2c-0.2,5.3,0.1,10.6,0.6,15.9c0.3,2.2,0.4,4.4,0.8,6.6l0.5,3.3l0.7,3.2c4.7,13.7,11.6,26.8,20.8,38.6h0.1
			c-3.1-4.6-5.8-9.2-8.3-14.1c-2.5-4.9-4.7-10.2-6.6-16.1c-1.4-3.5-2.7-7.9-3.8-12.2c-1-4.4-1.7-8.7-1.8-12.1
			c-0.3-5.9-0.1-11.3,0.2-16.5c0.1-1.3,0.2-2.6,0.3-3.8c0.2-1.3,0.3-2.5,0.4-3.8c0.1-1.2,0.3-2.5,0.5-3.7c0.2-1.2,0.3-2.5,0.6-3.7
			c0.9-4.9,2.1-9.8,3.5-14.9c1.5-5.1,3.5-10.4,6-16c0.6-1,1.2-2,1.7-3c0.6-1,1.2-1.9,1.8-2.9c1.2-2,2.6-3.8,3.8-5.6
			c2.7-3.6,5.5-7.1,8.5-10.2c3-3.2,6.2-6.2,9.4-9c3.3-2.7,6.7-5.4,10.3-7.7c14.1-9.5,30-15.7,47.1-18.5c-5.4,0.7-10.8,1.8-16.3,3.3
			c-5.5,1.5-10.9,3.5-16.3,5.9c-1.3,0.6-2.7,1.2-4,1.9s-2.6,1.4-4,2.1c-1.3,0.7-2.6,1.5-3.9,2.2s-2.5,1.6-3.8,2.4
			c-5,3.3-9.8,7.1-14.3,11.2c-8.9,8.2-16.4,18-22.1,28.5C329.3,96,325.5,107.1,323.8,118z"/>
		<path class="st37" d="M436.4,244.2c-1.3,0-2.6,0.1-4,0.1c-0.8,0.2-2.5,0.1-3.9,0c-0.8,0-1.7,0-2.5-0.1c-0.9-0.1-1.7-0.1-2.6-0.2
			c-0.9-0.1-1.7-0.1-2.6-0.2c-0.9-0.1-1.8-0.2-2.7-0.3c-0.1,0-0.1,0.1-0.2,0.1c0,0-0.4-0.1-0.9-0.2c-1.9-0.2-3.9-0.6-5.8-0.9
			c-0.3,0.1-0.5,0.2-0.7,0.3c-0.5,0-1.1-0.1-1.6-0.1c5.5,1.2,11.2,2.1,16.9,2.5c5.7,0.3,11.4,0.2,17.1-0.3
			C440.2,244.8,438.8,244.5,436.4,244.2z"/>
		<path class="st37" d="M450.1,243.5c0,0.1,0.1,0.1,0.2,0.2c4.3-0.7,8.6-1.8,12.8-3c4.2-1.3,8.4-2.8,12.4-4.7
			c-4,1.8-8.2,3.3-12.4,4.6l-3.2,0.9l-1.6,0.4l-1.6,0.3l-3.2,0.7C452.3,243.2,451.2,243.3,450.1,243.5z"/>
		<path class="st47" d="M462.9,243.5c-8.7,2.1-17.8,3.3-26.8,3.2l-3,0.1c6.1,0.6,12.5,0.5,19.1-0.4c6.7-0.9,13.6-2.5,20.8-5
			c-21.3,8-44.1,8.6-64.6,3.2c-15.6-3.2-30.4-9.7-43.1-19c-12.7-9.4-23.5-21.5-31.1-35.4c6.3,12.2,14.8,23.2,25.1,32.3
			c10.3,9.1,22.3,16.4,35.4,21.1c1.9,0.5,3.3,0.6,3.9,0.4c11.5,4.6,24.7,6.5,37.9,5.8s26.3-3.9,38.7-8.6c0.5-0.1,0.2,0.1-0.4,0.4
			c-0.6,0.3-1.3,0.6-1.8,0.8c0.7-0.3,1.5-0.6,2.2-0.9l2.2-1c1.4-0.7,2.9-1.3,4.3-2.1c4.5-2.6,8.9-5.8,14.1-9.5
			c-1.2,0.8-2.5,1.6-3.7,2.3c-1.3,0.7-2.5,1.5-3.9,2.2c-4.5,2.5-9,4.6-13.4,6.3c-1.1,0.4-2.2,0.8-3.2,1.1c-1.1,0.3-2.1,0.7-3.1,1
			c-1,0.3-2,0.5-3,0.8c-0.5,0.1-1,0.2-1.4,0.4C463.8,243.4,463.3,243.5,462.9,243.5z"/>
		<path class="st37" d="M473.1,241.5c-7.2,2.6-14.2,4.2-20.8,5c-6.7,0.9-13.1,1-19.1,0.4c-8.3,0.2-16.5-0.5-24.6-2.2
			C429.1,250.1,451.8,249.4,473.1,241.5z"/>
		<path class="st48" d="M431.9,246.8c0.9,0,1.7,0,2.6,0c-2.7,0-5.4-0.2-8.1-0.4c-1.4-0.1-2.7-0.3-4-0.5c-0.7-0.1-1.3-0.1-2-0.2
			l-2-0.3c-5.4-0.8-10.6-2.1-15.8-3.7c-0.1,0-0.2,0-0.3,0c-1.4-0.4-2.5-0.7-3.3-1.1c-1.7-0.7-3.5-1.2-5.2-2l-2.5-1.1
			c-0.8-0.3-1.7-0.7-2.5-1.1c-0.6-0.2-1.2-0.5-1.8-0.7c-0.7-0.3-1.4-0.6-2.1-0.9c-0.7-0.4-1.4-0.7-2.1-1.1c-0.9-0.4-1.8-0.9-2.7-1.4
			s-1.8-1.1-2.8-1.6c4.8,3.2,9.8,5.9,15.1,8.3c5.3,2.3,10.7,4.4,16.4,5.8c8,1.7,16.3,2.4,24.6,2.2
			C432.7,246.8,432.3,246.8,431.9,246.8z"/>
		<path class="st37" d="M507.5,219.2c-5.3,4.7-10.7,8.4-16.3,11.5c-5.5,3.1-11.2,5.5-17.1,7.6c-6.5,2.7-13.3,4.9-20.2,6.3
			c1.4,0,3.1-0.1,5.2-0.3c8.9-1.9,17.6-4.8,25.7-8.9c2-1.1,4.1-2.1,6-3.3c1-0.6,2-1.2,3-1.8c1-0.7,1.9-1.3,2.9-2l1.4-1l1.4-1.1
			c0.9-0.7,1.8-1.4,2.8-2.2c0.9-0.8,1.8-1.5,2.7-2.3l1.3-1.2L507.5,219.2z"/>
		<path class="st14" d="M459.5,242.4c1.1-0.3,2.3-0.7,3.5-1s2.3-0.8,3.4-1.1c2.3-0.7,4.6-1.7,6.9-2.5c4.5-1.9,9.1-4,13.5-6.6
			c8.8-5,17-11.3,24.1-18.5l1.3-1.4l1.3-1.4c0.8-0.9,1.7-1.9,2.5-2.8c1.6-2,3.2-3.9,4.6-5.9c1.5-2,2.8-4.1,4.1-6.1
			c0.6-1,1.2-2.1,1.8-3.2l0.9-1.6l0.8-1.6c0.5-1.1,1.1-2.1,1.6-3.2c0.5-1.1,0.9-2.2,1.4-3.3c0.2-0.5,0.5-1.1,0.7-1.6
			s0.4-1.1,0.6-1.6c0.4-1.1,0.8-2.2,1.2-3.2c1.4-4.4,2.5-8.6,3.2-12.8c-1.6,5-3.7,10.3-6.2,15.6c-3.1,7.9-7.3,15.4-12.2,22.4
			c-4.9,7-10.7,13.3-17.2,18.8l-1.4,1.3l-1.5,1.2c-1,0.8-2,1.6-3,2.4l-3.1,2.2c-1,0.8-2.1,1.4-3.2,2.1c-1.1,0.7-2.2,1.4-3.3,2
			s-2.2,1.3-3.3,1.9c-2.3,1.2-4.6,2.4-6.9,3.4c-4,1.8-8.2,3.3-12.4,4.7c-4.2,1.2-8.5,2.3-12.8,3c0.5,0.5,1.7,0.8,3.6,0.9
			c6.9-1.4,13.7-3.6,20.2-6.3C469.4,239.8,464.6,241.3,459.5,242.4z"/>
		<path class="st37" d="M462.9,243.5c-1.4,0.3-2.7,0.5-3.9,0.7c-7,1.5-14.3,2.3-21.6,2.5c-0.4,0-0.9,0-1.3,0
			C445.1,246.9,454.2,245.7,462.9,243.5z"/>
		<path class="st43" d="M459,244.2c-2,0.2-3.8,0.3-5.2,0.3c-1.9,0.4-3.8,0.7-5.7,1c-1.9,0.2-3.8,0.5-5.7,0.7
			c-1.7,0.1-3.4,0.3-5.1,0.4C444.8,246.5,452,245.7,459,244.2z"/>
		<rect x="340.2" y="86.2" class="st14" width="181.6" height="51.4"/>
		<text transform="matrix(0.9997 0 0 1 384.5721 104.3239)" class="st15 st16">Delirium </text>
		<text transform="matrix(0.9997 0 0 1 382.7733 134.3239)" class="st15 st16">Duration</text>
		<text transform="matrix(0.9997 0 0 1 392.0918 177.0797)" class="st49 st18 st19">3.72</text>
		<text transform="matrix(0.9997 0 0 1 401.9803 203.6164)" class="st49 st34 st35">Days</text>
	</g>
	<path class="st2" d="M212.4,252.7l3-0.1c-0.6,0-1.1,0-1.7,0c-0.9,0-1.7,0-2.6,0C211.5,252.7,211.9,252.7,212.4,252.7z"/>
	<path class="st2" d="M216.6,252.6c-1,0-2,0-3,0c0.6,0,1.1,0,1.7,0C215.7,252.6,216.2,252.6,216.6,252.6z"/>
	<path class="st3" d="M216.6,252.6c-1,0-2,0-3,0c0.6,0,1.1,0,1.7,0C215.7,252.6,216.2,252.6,216.6,252.6z"/>
	<path class="st3" d="M212.4,252.7l3-0.1c-0.6,0-1.1,0-1.7,0c-0.9,0-1.7,0-2.6,0C211.5,252.7,211.9,252.7,212.4,252.7z"/>
	<g>
		<path class="st50" d="M257.3,416.8c-3.1,7.2-7,14.1-11.7,20.4s-10,12.2-16,17.3c6.4-5.6,12.3-11.9,17.2-18.8s9.1-14.4,12.2-22.4
			C258.5,414.6,257.9,415.7,257.3,416.8z"/>
		<path class="st50" d="M261.2,407.5c-0.3,0.8-0.6,1.6-0.9,2.4c-0.4,0.8-0.7,1.5-1.1,2.3l-0.9,2.4l-1,2.3c0.6-1.1,1.2-2.3,1.8-3.5
			l1.1-2.9C260.5,409.5,260.8,408.5,261.2,407.5z"/>
		<path class="st50" d="M259.2,412.2c-0.6,1.2-1.1,2.4-1.7,3.5c-0.8,1.7-1.5,3.4-2.4,5.1c0.8-1.3,1.5-2.6,2.2-4l1-2.3L259.2,412.2z"
			/>
		<path class="st51" d="M259.2,412.2c-0.4,0.9-0.8,1.8-1.2,2.7c-0.2,0.5-0.4,0.9-0.6,1.3c-0.3,0.8-0.7,1.6-1,2.4
			c0.3-0.6,0.6-1.2,0.9-1.8l1-2.3L259.2,412.2z"/>
		<path class="st52" d="M257.3,416.8c-3.1,7.2-7,14.1-11.7,20.4s-10,12.2-16,17.3c6.4-5.6,12.3-11.9,17.2-18.8s9.1-14.4,12.2-22.4
			C258.5,414.6,257.9,415.7,257.3,416.8z"/>
		<path class="st51" d="M261.2,407.5c-0.3,0.8-0.6,1.6-0.9,2.4c-0.4,0.8-0.7,1.5-1.1,2.3l-0.9,2.4l-1,2.3c0.6-1.1,1.2-2.3,1.8-3.5
			l1.1-2.9C260.5,409.5,260.8,408.5,261.2,407.5z"/>
		<path class="st50" d="M238.9,467.6c-2,0.2-3.8,0.3-5.2,0.3c-1.9,0.4-3.8,0.7-5.7,1c-1.9,0.2-3.8,0.5-5.7,0.7
			c-1.7,0.1-3.4,0.3-5.1,0.4C224.7,469.9,231.9,469.1,238.9,467.6z"/>
		<path class="st50" d="M303,426.9c-3,3.5-7.6,8.9-13.6,14.5s-13.3,11.3-21.1,15.6C282.2,449.5,294.1,439,303,426.9z"/>
		<path class="st50" d="M287.4,442.6c-5.3,4.7-10.7,8.4-16.3,11.5c-5.5,3.1-11.2,5.5-17.1,7.6c-6.5,2.7-13.3,4.9-20.2,6.3
			c1.4,0,3.1-0.1,5.2-0.3c8.9-1.9,17.6-4.8,25.7-8.9c2-1.1,4.1-2.1,6-3.3c1-0.6,2-1.2,3-1.8c1-0.7,1.9-1.3,2.9-2l1.4-1l1.4-1.1
			c0.9-0.7,1.8-1.4,2.8-2.2c0.9-0.8,1.8-1.5,2.7-2.3l1.3-1.2L287.4,442.6z"/>
		<path class="st50" d="M268.3,457c-2,1-4,2.1-6.1,3.1c-1,0.5-2.1,1-3.1,1.4l-3.2,1.3l-1.6,0.6l-1.6,0.6l-3.3,1.1l-3.3,1
			c-1.1,0.3-2.2,0.6-3.3,0.9c0.5-0.1,0.9-0.2,1.4-0.3c0.5-0.1,0.9-0.2,1.4-0.4c1-0.3,2-0.5,3-0.8c1-0.3,2-0.7,3.1-1
			c1.1-0.4,2.1-0.7,3.2-1.1C259.3,461.7,263.9,459.6,268.3,457z"/>
		<path class="st50" d="M255.4,459.4c2.4-1,4.6-2.2,6.9-3.4c1.1-0.6,2.2-1.3,3.3-1.9s2.2-1.3,3.3-2c1.1-0.7,2.2-1.4,3.2-2.1l3.1-2.2
			c1-0.8,2-1.6,3-2.4l1.5-1.2l1.4-1.3c-3.9,3.3-8,6.4-12.3,9.2c-1.1,0.7-2.2,1.4-3.3,2s-2.2,1.3-3.3,1.9
			C260,457.2,257.7,458.4,255.4,459.4z"/>
		<path class="st50" d="M230,466.9c0,0.1,0.1,0.1,0.2,0.2c4.3-0.7,8.6-1.8,12.8-3c4.2-1.3,8.4-2.8,12.4-4.7c-4,1.8-8.2,3.3-12.4,4.6
			l-3.2,0.9l-1.6,0.4l-1.6,0.3l-3.2,0.7C232.2,466.6,231.1,466.7,230,466.9z"/>
		<path class="st50" d="M214.3,470.2c1,0,2,0,3,0c1.7-0.1,3.4-0.3,5.1-0.4c1.9-0.2,3.8-0.5,5.7-0.7c1.9-0.3,3.8-0.6,5.7-1
			c-1.9,0-3.2-0.4-3.6-0.9c-9.5,1.7-19.1,1.9-28.6,1c-1.2-0.1-2.4-0.3-3.5-0.4c-1.2-0.2-2.4-0.3-3.5-0.5c-2.3-0.5-4.7-0.8-7-1.5
			c-4.6-1.1-9.1-2.6-13.5-4.3c-1.2-0.4-2.4-0.8-3.5-1.2c-1.2-0.4-2.2-0.9-3.4-1.3c7.3,3.5,14.9,6.3,22.9,8.2
			C197.9,469,206.1,470,214.3,470.2z"/>
		<path class="st50" d="M230,466.9c1.1-0.2,2.2-0.3,3.3-0.5l3.2-0.7l1.6-0.3l1.6-0.4l3.2-0.9c4.2-1.3,8.4-2.8,12.4-4.6
			c2.4-1,4.6-2.2,6.9-3.4c1.1-0.6,2.2-1.3,3.3-1.9s2.2-1.3,3.3-2c4.3-2.7,8.5-5.8,12.3-9.2c5.9-5.2,11.3-11,16-17.3
			c4.6-6.4,8.5-13.2,11.7-20.4c-0.7,1.3-1.4,2.7-2.2,4c-5.2,10.4-12.4,20.2-21.5,28.7c-10.2,9.9-21,16.7-32.4,21.7
			c-11.5,4.8-23.7,7.7-37.5,8c-5.8,0.3-12.8,0-20-1.1c-7.2-1-14.6-2.9-21.3-5.1c4.4,1.7,8.9,3.2,13.5,4.3c2.3,0.6,4.6,1,7,1.5
			c1.2,0.2,2.4,0.3,3.5,0.5c1.2,0.2,2.4,0.4,3.5,0.4c9.5,0.9,19.2,0.7,28.6-1C230.1,467,230,467,230,466.9z"/>
		<path class="st50" d="M114.7,414.4c7.7,13.7,18.3,25.6,31,34.9c12.7,9.2,27.4,15.6,42.8,18.8c-15-4-28.8-11.1-40.5-20.8
			c-1.5-1.1-2.9-2.2-4.3-3.4c-1.4-1.2-2.7-2.4-4.1-3.5c-1.2-0.8-2.3-1.7-3.4-2.5s-2-1.7-2.7-2.6c-1.3-1.4-2.5-2.9-3.6-4.3
			c-1.2-1.4-2.2-2.9-3.3-4.3c-9.8-12-17-25.6-21.8-39.7l0.4,1.8l0.5,1.8l0.9,3.5l1.1,3.5l0.6,1.7l0.6,1.7l1.3,3.4l1.4,3.4
			c0.5,1.1,1,2.2,1.5,3.3C113.6,412.2,114.1,413.3,114.7,414.4z"/>
		<path class="st50" d="M152.7,450.6c-1.6-1.1-3.1-2.4-4.6-3.7c-1.5-1.3-3.1-2.6-4.6-4c-0.4-0.3-0.8-0.6-1.3-0.9
			c0.9,0.9,1.9,1.8,2.9,2.6c1,0.8,1.9,1.7,3,2.6C149.5,448.4,151.1,449.6,152.7,450.6z"/>
		<path class="st50" d="M142.2,442.1c-0.8-0.6-1.7-1.1-2.6-1.7c1.4,1.2,2.7,2.4,4.1,3.5s2.8,2.3,4.3,3.4c-1-0.8-2-1.7-3-2.6
			C144,443.9,143.1,443,142.2,442.1z"/>
		<path class="st50" d="M213.1,470.3l3-0.1c-0.6,0-1.1,0-1.7,0c-0.9,0-1.7,0-2.6,0C212.2,470.2,212.6,470.2,213.1,470.3z"/>
		<path class="st50" d="M253,464.9c-7.2,2.6-14.2,4.2-20.8,5c-6.7,0.9-13.1,1-19.1,0.4c-8.3,0.2-16.5-0.5-24.6-2.2
			C208.9,473.4,231.7,472.8,253,464.9z"/>
		<path class="st50" d="M211.7,470.2c0.9,0,1.7,0,2.6,0c-8.2-0.1-16.4-1.2-24.3-3c-7.9-1.9-15.6-4.7-22.9-8.2
			c-0.5-0.2-1.1-0.4-1.6-0.6c-4.1-1.8-8.5-4.4-12.8-7.7c-1.6-1-3.1-2.2-4.7-3.3c11.7,9.6,25.5,16.8,40.5,20.8
			c8,1.7,16.3,2.4,24.6,2.2C212.6,470.2,212.2,470.2,211.7,470.2z"/>
		<path class="st50" d="M242.8,466.9c-1.4,0.3-2.7,0.5-3.9,0.7c-7,1.5-14.3,2.3-21.6,2.5c-0.4,0-0.9,0-1.3,0
			C225,470.2,234.1,469.1,242.8,466.9z"/>
		<path class="st50" d="M217.3,470.1c-1,0-2,0-3,0c0.6,0,1.1,0,1.7,0C216.4,470.2,216.9,470.2,217.3,470.1z"/>
		<path class="st51" d="M255.4,459.4c2.4-1,4.6-2.2,6.9-3.4c1.1-0.6,2.2-1.3,3.3-1.9s2.2-1.3,3.3-2c1.1-0.7,2.2-1.4,3.2-2.1l3.1-2.2
			c1-0.8,2-1.6,3-2.4l1.5-1.2l1.4-1.3c-3.9,3.3-8,6.4-12.3,9.2c-1.1,0.7-2.2,1.4-3.3,2s-2.2,1.3-3.3,1.9
			C260,457.2,257.7,458.4,255.4,459.4z"/>
		<path class="st51" d="M176.8,462.4c-0.3-0.1-0.6-0.2-1-0.3C176.2,462.2,176.5,462.3,176.8,462.4
			C176.9,462.4,176.8,462.4,176.8,462.4z"/>
		<path class="st51" d="M182.9,464.1c-0.2-0.1-0.4-0.1-0.7-0.2c0,0.1,0.2,0.3,0.3,0.4c1.2,0.4,2.4,0.7,3.6,1
			c-0.5-0.2-1.1-0.3-1.6-0.6C184,464.5,183.5,464.3,182.9,464.1z"/>
		<path class="st53" d="M230,466.9c1.1-0.2,2.2-0.3,3.3-0.5l3.2-0.7l1.6-0.3l1.6-0.4l3.2-0.9c4.2-1.3,8.4-2.8,12.4-4.6
			c2.4-1,4.6-2.2,6.9-3.4c1.1-0.6,2.2-1.3,3.3-1.9s2.2-1.3,3.3-2c4.3-2.7,8.5-5.8,12.3-9.2c5.9-5.2,11.3-11,16-17.3
			c4.6-6.4,8.5-13.2,11.7-20.4c-0.3,0.6-0.6,1.2-0.9,1.8c-0.4,1.1-1,2.1-1.4,3.1c-0.5,1-1,2.1-1.6,3.1c0.3-0.6,0.6-1.3,0.8-1.9
			c-0.3,0.5-0.6,1.1-1,1.7c-3.1,5.6-6.8,11-11.1,16.1c-1.1,1.4-2.2,2.7-3.3,3.8c-1.1,1.1-2.1,2.1-3,2.9c-0.4,0.3-0.7,0.7-1,1
			c-9.9,9.8-20.4,16.8-31.5,21.8c0,0.1-0.1,0.3-0.2,0.5c-1.3,0.6-2.7,1-4.1,1.5c-1.4,0.5-2.7,0.9-4.1,1.3
			c-6.5,2.3-13.3,3.9-20.5,4.8c-1,0.4,2.9,0.3,1,0.7c-0.2,0-0.5,0.1-0.7,0.1c1.3-0.1,2.7-0.4,4-0.6C230.1,467,230,467,230,466.9z"/>
		<path class="st51" d="M182.4,465c5.1,1.6,10.4,2.9,15.8,3.7l2,0.3c0.7,0.1,1.3,0.2,2,0.2c1.3,0.1,2.7,0.3,4,0.5
			c2.7,0.2,5.4,0.4,8.1,0.4c1,0,2,0,3,0c1.7-0.1,3.4-0.3,5.1-0.4c1.9-0.2,3.8-0.5,5.7-0.7c1.9-0.3,3.8-0.6,5.7-1
			c-1.9,0-3.2-0.4-3.6-0.9c-1.3,0.2-2.7,0.5-4,0.6c-1.3,0.2-2.4,0.3-3.4,0.4c-5.7,0.5-11.4,0.6-17.1,0.3c-5.7-0.4-11.3-1.2-16.9-2.5
			c-0.8-0.1-1.7-0.4-2.6-0.6c-1.2-0.3-2.4-0.6-3.6-1C182.9,464.7,183.3,465.1,182.4,465z"/>
		<path class="st54" d="M114.3,413.7c7.6,13.9,18.3,26,31.1,35.4c12.7,9.4,27.6,15.9,43.1,19c-5.6-1.4-11.1-3.5-16.4-5.8
			c-5.3-2.4-10.3-5.1-15.1-8.3c-0.7-0.4-1.5-0.8-2.2-1.3c0.4,0.2,0.7,0.4,1,0.6c-0.9-0.6-1.7-1.2-2.6-1.9c-0.5-0.1-0.7,0-0.8,0.4
			c-1.2-0.9-3.3-2.6-5-3.8c-1.6-1.3-2.8-2.5-2.1-2.4c0.1,0,0.2,0.1,0.4,0.1c-0.8-0.7-1.6-1.3-2.5-1.9l-2.4-2
			c-1.3-0.8-2.5-1.7-3.7-2.6c-1.1-0.9-2.2-1.7-2.9-2.6c-0.3-0.3-0.5-0.6-0.8-0.9c-0.5-0.5-1-1.1-1.5-1.6c-0.5-0.6-1-1.2-1.5-1.9l0,0
			c-0.7-0.2-0.1,1,0.5,2.1c0.6,1.1,1.2,2,0.4,1.3c-1.8-1.7-3.1-3.2-4.1-4.5s-1.6-2.3-2-3.1c-0.8-1.6-0.6-2.3,0.2-2.3
			c-9.2-11.7-16.2-24.9-20.8-38.6C106.6,396.2,110,405.2,114.3,413.7z"/>
		<path class="st51" d="M146.4,445.9c-1.1-1-2.3-1.9-3.3-3c-0.7-0.5-1.4-0.9-2.1-1.4l2.4,2c0.8,0.7,1.6,1.3,2.5,1.9
			C146,445.7,146.2,445.8,146.4,445.9z"/>
		<path class="st51" d="M216.3,467.6c-1.3,0-2.6,0.1-4,0.1c-0.8,0.2-2.5,0.1-3.9,0c-0.8,0-1.7,0-2.5-0.1c-0.9-0.1-1.7-0.1-2.6-0.2
			s-1.7-0.1-2.6-0.2s-1.8-0.2-2.7-0.3c-0.1,0-0.1,0.1-0.2,0.1c0,0-0.4-0.1-0.9-0.2c-1.9-0.2-3.9-0.6-5.8-0.9
			c-0.3,0.1-0.5,0.2-0.7,0.3c-0.5,0-1.1-0.1-1.6-0.1c5.5,1.2,11.2,2.1,16.9,2.5c5.7,0.3,11.4,0.2,17.1-0.3
			C220.1,468.2,218.7,467.9,216.3,467.6z"/>
		<path class="st51" d="M178.8,463.8c-1.1-0.5-1.8-1-1.9-1.4c-0.3-0.1-0.7-0.2-1-0.4c-1.3-0.3-2.5-0.8-3.7-1.2
			c-1.2-0.4-2.4-0.8-3.6-1.2c0.8,0.4,1.7,0.8,2.5,1.1l2.5,1.1C175.3,462.6,177.1,463.1,178.8,463.8z"/>
		<path class="st51" d="M148.3,447.1c-1.3-1-2.5-2.2-3.9-3.3c-0.5-0.3-0.9-0.6-1.4-0.9c1,1,2.2,2,3.3,3
			C146.9,446.2,147.6,446.7,148.3,447.1z"/>
		<path class="st51" d="M230,466.9c0,0.1,0.1,0.1,0.2,0.2c4.3-0.7,8.6-1.8,12.8-3c4.2-1.3,8.4-2.8,12.4-4.7c-4,1.8-8.2,3.3-12.4,4.6
			l-3.2,0.9l-1.6,0.4l-1.6,0.3l-3.2,0.7C232.2,466.6,231.1,466.7,230,466.9z"/>
		<path class="st51" d="M276.7,452l-0.1,0.4l1.6-1.1l1.6-1.2c1-0.8,2.1-1.6,3.1-2.4c-1,0.8-2,1.5-3,2.2l-1.5,1.1L276.7,452z"/>
		<path class="st55" d="M242.8,466.9c-8.7,2.1-17.8,3.3-26.8,3.2l-3,0.1c6.1,0.6,12.5,0.5,19.1-0.4c6.7-0.9,13.6-2.5,20.8-5
			c-21.3,8-44.1,8.6-64.6,3.2c-15.6-3.2-30.4-9.7-43.1-19c-12.7-9.4-23.5-21.5-31.1-35.4c6.3,12.2,14.8,23.2,25.1,32.3
			c10.3,9.1,22.3,16.4,35.4,21.1c1.9,0.5,3.3,0.6,3.9,0.4c11.5,4.6,24.7,6.5,37.9,5.8c13.2-0.7,26.3-3.9,38.7-8.6
			c0.5-0.1,0.2,0.1-0.4,0.4c-0.6,0.3-1.3,0.6-1.8,0.8c0.7-0.3,1.5-0.6,2.2-0.9l2.2-1c1.4-0.7,2.9-1.3,4.3-2.1
			c4.5-2.6,8.9-5.8,14.1-9.5c-1.2,0.8-2.5,1.6-3.7,2.3c-1.3,0.7-2.5,1.5-3.9,2.2c-4.5,2.5-9,4.6-13.4,6.3c-1.1,0.4-2.2,0.8-3.2,1.1
			c-1.1,0.3-2.1,0.7-3.1,1s-2,0.5-3,0.8c-0.5,0.1-1,0.2-1.4,0.4C243.7,466.8,243.3,466.8,242.8,466.9z"/>
		<path class="st51" d="M253,464.9c-7.2,2.6-14.2,4.2-20.8,5c-6.7,0.9-13.1,1-19.1,0.4c-8.3,0.2-16.5-0.5-24.6-2.2
			C208.9,473.4,231.7,472.8,253,464.9z"/>
		<path class="st51" d="M268.3,457c1.3-0.7,2.6-1.5,3.9-2.2s2.5-1.5,3.7-2.3c0.3-0.2,0.5-0.4,0.8-0.6v0.1l1.6-1l1.5-1.1
			c1-0.7,2-1.5,3-2.2c6.1-5,11.6-10.4,16.5-16.4c-3.4,3.8-7.8,8.5-13.1,13.1C281,448.9,274.8,453.4,268.3,457z"/>
		<path class="st56" d="M211.7,470.2c0.9,0,1.7,0,2.6,0c-2.7,0-5.4-0.2-8.1-0.4c-1.4-0.1-2.7-0.3-4-0.5c-0.7-0.1-1.3-0.1-2-0.2
			l-2-0.3c-5.4-0.8-10.6-2.1-15.8-3.7c-0.1,0-0.2,0-0.3,0c-1.4-0.4-2.5-0.7-3.3-1.1c-1.7-0.7-3.5-1.2-5.2-2l-2.5-1.1
			c-0.8-0.3-1.7-0.7-2.5-1.1c-0.6-0.2-1.2-0.5-1.8-0.7c-0.7-0.3-1.4-0.6-2.1-0.9c-0.7-0.4-1.4-0.7-2.1-1.1c-0.9-0.4-1.8-0.9-2.7-1.4
			s-1.8-1.1-2.8-1.6c4.8,3.2,9.8,5.9,15.1,8.3c5.3,2.3,10.7,4.4,16.4,5.8c8,1.7,16.3,2.4,24.6,2.2
			C212.6,470.2,212.2,470.2,211.7,470.2z"/>
		<path class="st51" d="M217.3,470.1c-1,0-2,0-3,0c0.6,0,1.1,0,1.7,0C216.4,470.2,216.9,470.2,217.3,470.1z"/>
		<path class="st51" d="M287.4,442.6c-5.3,4.7-10.7,8.4-16.3,11.5c-5.5,3.1-11.2,5.5-17.1,7.6c-6.5,2.7-13.3,4.9-20.2,6.3
			c1.4,0,3.1-0.1,5.2-0.3c8.9-1.9,17.6-4.8,25.7-8.9c2-1.1,4.1-2.1,6-3.3c1-0.6,2-1.2,3-1.8c1-0.7,1.9-1.3,2.9-2l1.4-1l1.4-1.1
			c0.9-0.7,1.8-1.4,2.8-2.2c0.9-0.8,1.8-1.5,2.7-2.3l1.3-1.2L287.4,442.6z"/>
		<path class="st57" d="M268.3,457c-2,1-4,2.1-6.1,3.1c-1,0.5-2.1,1-3.1,1.4l-3.2,1.3l-1.6,0.6l-1.6,0.6l-3.3,1.1l-3.3,1
			c-1.1,0.3-2.2,0.6-3.3,0.9c0.5-0.1,0.9-0.2,1.4-0.3c0.5-0.1,0.9-0.2,1.4-0.4c1-0.3,2-0.5,3-0.8c1-0.3,2-0.7,3.1-1
			c1.1-0.4,2.1-0.7,3.2-1.1C259.3,461.7,263.9,459.6,268.3,457z"/>
		<path class="st51" d="M157.5,454c-0.6-0.4-1.2-0.8-1.8-1.2c-0.6-0.4-1.2-0.9-1.8-1.3c-0.3-0.1-0.5-0.1-0.7-0.2
			c0.9,0.6,1.7,1.2,2.6,1.9C156.5,453.5,157.1,453.8,157.5,454z"/>
		<path class="st51" d="M213.1,470.3l3-0.1c-0.6,0-1.1,0-1.7,0c-0.9,0-1.7,0-2.6,0C212.2,470.2,212.6,470.2,213.1,470.3z"/>
		<path class="st51" d="M242.8,466.9c-1.4,0.3-2.7,0.5-3.9,0.7c-7,1.5-14.3,2.3-21.6,2.5c-0.4,0-0.9,0-1.3,0
			C225,470.2,234.1,469.1,242.8,466.9z"/>
		<path class="st52" d="M238.9,467.6c-2,0.2-3.8,0.3-5.2,0.3c-1.9,0.4-3.8,0.7-5.7,1c-1.9,0.2-3.8,0.5-5.7,0.7
			c-1.7,0.1-3.4,0.3-5.1,0.4C224.7,469.9,231.9,469.1,238.9,467.6z"/>
		<path class="st50" d="M265.3,384.8c-0.3,1.5-0.6,3-1,4.4c-1.1,7.9-3.1,15.7-5.9,23.2c0.4-0.8,0.7-1.5,1.1-2.3
			c0.3-0.8,0.6-1.6,0.9-2.4C262.9,400.3,264.6,392.6,265.3,384.8z"/>
		<path class="st50" d="M264.9,360.2c0.3,2.4,0.3,4.7,0.4,7.1c0.1,1.1,0.1,2.3,0.1,3.4s0.1,2.3,0,3.4c-0.1,2.3-0.1,4.5-0.3,6.8
			c-0.1,1.2-0.2,2.3-0.2,3.5c-0.2,1.6-0.4,3.3-0.6,4.9c0.3-1.4,0.7-2.9,1-4.4C266.1,376.6,266,368.3,264.9,360.2z"/>
		<path class="st50" d="M258.9,327.3c0.3,1,0.7,2,1,3.1c2,4.8,3.7,9.6,5,14.6C263.5,338.9,261.5,333,258.9,327.3z"/>
		<path class="st50" d="M265.3,384.8c-0.8,7.8-2.4,15.5-4.9,22.9c7.7-19.2,9.6-41.5,4.5-62.7c-1.3-5-3.1-9.9-5-14.6
			c2.7,8.4,5.1,17.8,6.1,27.3C267.1,367.1,266.9,376.6,265.3,384.8z"/>
		<path class="st50" d="M264.9,384.3c-0.2,1.7-0.4,3.4-0.6,5.1c0-0.1,0-0.1,0.1-0.2C264.5,387.6,264.7,385.9,264.9,384.3z"/>
		<path class="st50" d="M264.3,389.2c0,0.1,0,0.2-0.1,0.2c-0.7,4.5-1.6,9-2.9,13.4c-0.6,2.2-1.4,4.4-2.1,6.6
			c-0.4,1.1-0.8,2.2-1.2,3.2c-0.4,1.1-0.8,2.2-1.3,3.2c0.6-1.2,1.1-2.4,1.7-3.5C261.3,404.9,263.3,397.1,264.3,389.2z"/>
		<path class="st50" d="M264.9,360.2c-0.6-4.9-1.7-9.7-2.9-14.4c1.8,7.1,2.9,14.3,3.3,21.5C265.2,364.9,265.2,362.6,264.9,360.2z"/>
		<path class="st51" d="M265.4,384.6c0,0.1,0,0.1,0,0.2c0,0.2,0,0.3,0,0.5C265.3,385,265.3,384.8,265.4,384.6z"/>
		<path class="st51" d="M265.2,365.9c0.2,2.3,0.2,4.5,0.3,6.8c0,1.1,0,2.2-0.1,3.4c0,1.1,0,2.2-0.1,3.4c0,0.6-0.1,1.2-0.1,1.8
			c0,0.4,0.1,0.7,0.1,1.1c0.2-1.7,0.2-1.7,0.4-3.3c-0.1,2-0.2,3.9-0.3,5.6c0.8-8.1,0.6-16.3-0.5-24.4
			C265.1,362.1,265.1,364,265.2,365.9z"/>
		<path class="st51" d="M258.9,327.3c0.3,1,0.7,2,1,3.1c2,4.8,3.7,9.6,5,14.6C263.5,338.9,261.5,333,258.9,327.3z"/>
		<path class="st53" d="M264.9,345c-1.3-5-3.1-9.9-5-14.6c2.7,8.4,5,17.7,6.1,27.2c1,9.4,0.9,18.9-0.6,27c-0.1,1.3-0.1,2.7-0.2,4.1
			c-0.1-1,0-2.2,0.1-3.4c0,0.2-0.1,0.5-0.1,0.7c-0.8,7.4-2.4,14.7-4.7,21.8C268.2,388.5,270.1,366.2,264.9,345z"/>
		<path class="st51" d="M260.5,407.7c2.3-7.1,3.9-14.4,4.7-21.8c-0.4,3.2-1.1,6.6-1.9,9.6c-1.1,5.7-2.8,11.4-4.8,16.9
			c0.4-0.8,0.7-1.5,1.1-2.3C259.8,409.3,260.1,408.5,260.5,407.7z"/>
		<path class="st51" d="M265.2,365.9c-0.1-1.9-0.1-3.8-0.3-5.7l-0.4-2.8c-0.1-0.9-0.3-1.8-0.5-2.8l-0.5-2.7l-0.6-2.7
			c0,0.1,0,0.1,0,0.2C264.1,354.9,264.9,360.4,265.2,365.9z"/>
		<path class="st51" d="M263.4,349.6c-0.2-0.6-0.4-1.1-0.8-2.2c0.1,0.6,0.1,1.3,0.2,1.9l0.6,2.7l0.5,2.7c0.2,0.9,0.4,1.8,0.5,2.8
			l0.4,2.8l-0.2-2.7c-0.1-0.9-0.2-1.8-0.4-2.7l-0.4-2.7C263.8,351.3,263.6,350.5,263.4,349.6z"/>
		<path class="st51" d="M263.3,395.5L263.3,395.5c-1.4,6.7-3.4,13.2-6.1,19.5c0.4-0.9,0.8-1.8,1.2-2.7
			C260.5,406.9,262.2,401.3,263.3,395.5z"/>
		<ellipse class="st6" cx="210.7" cy="361.7" rx="109.9" ry="109.9"/>
		<path class="st50" d="M238.7,466c1.1-0.3,2.3-0.7,3.5-1s2.3-0.8,3.4-1.1c2.3-0.7,4.6-1.7,6.9-2.5c4.5-1.9,9.1-4,13.5-6.6
			c8.8-5,17-11.3,24.1-18.5l1.3-1.4l1.3-1.4c0.8-0.9,1.7-1.9,2.5-2.8c1.6-2,3.2-3.9,4.6-5.9c1.5-2,2.8-4.1,4.1-6.1
			c0.6-1,1.2-2.1,1.8-3.2l0.9-1.6l0.8-1.6c0.5-1.1,1.1-2.1,1.6-3.2c0.5-1.1,0.9-2.2,1.4-3.3c0.2-0.5,0.5-1.1,0.7-1.6
			s0.4-1.1,0.6-1.6c0.4-1.1,0.8-2.2,1.2-3.2c1.4-4.4,2.5-8.6,3.2-12.8c-1.6,5-3.7,10.3-6.2,15.6c-3.1,7.9-7.3,15.4-12.2,22.4
			s-10.7,13.3-17.2,18.8l-1.4,1.3l-1.5,1.2c-1,0.8-2,1.6-3,2.4l-3.1,2.2c-1,0.8-2.1,1.4-3.2,2.1s-2.2,1.4-3.3,2
			c-1.1,0.6-2.2,1.3-3.3,1.9c-2.3,1.2-4.6,2.4-6.9,3.4c-4,1.8-8.2,3.3-12.4,4.7c-4.2,1.2-8.5,2.3-12.8,3c0.5,0.5,1.7,0.8,3.6,0.9
			c6.9-1.4,13.7-3.6,20.2-6.3C248.6,463.4,243.9,464.9,238.7,466z"/>
		<path class="st50" d="M311.5,318.8c-8-18.7-21.4-35-38.1-46.4c3.7,2.7,7.2,5.8,10.5,9l2.4,2.5l1.2,1.2l1.2,1.3l2.3,2.6l2.2,2.7
			l1.1,1.3l1,1.4l2.1,2.8l1.9,2.9l1,1.4l0.9,1.5c0.6,1,1.2,2,1.8,3c0.6,1,1.1,2.1,1.7,3.1s1.1,2.1,1.6,3.1c0.5,1.1,1,2.1,1.5,3.2
			c2.4,5.2,4.3,10.7,5.8,16.3c0.3,1.4,0.8,2.8,1,4.2l0.8,4.2c0.4,2.9,0.9,5.7,1.1,8.6c1.1,8.1,1.3,16.4,0.4,24.5
			c1.6-8.1,1.7-17.6,0.7-27.1C316.6,336.6,314.2,327.2,311.5,318.8z"/>
		<path class="st50" d="M312.1,396.1c-0.3,1-0.6,2-1,3L310,402c2.6-5.2,4.6-10.5,6.2-15.6c-0.6,4.2-1.8,8.5-3.2,12.8
			c-0.4,1.1-0.8,2.2-1.2,3.2c-0.2,0.5-0.4,1.1-0.6,1.6c-0.2,0.5-0.5,1.1-0.7,1.6c-0.5,1.1-0.9,2.2-1.4,3.3c-0.5,1.1-1.1,2.1-1.6,3.2
			l-0.8,1.6l-0.9,1.6c-0.6,1.1-1.2,2.1-1.8,3.2c-1.3,2.1-2.6,4.2-4.1,6.1c-1.4,2-3,4-4.6,5.9c-0.8,1-1.7,1.9-2.5,2.8l-1.3,1.4
			l-1.3,1.4c-7.1,7.3-15.3,13.5-24.1,18.5c-4.4,2.5-8.9,4.6-13.5,6.6c-2.3,0.9-4.6,1.8-6.9,2.5c-1.2,0.4-2.3,0.8-3.4,1.1
			c-1.2,0.3-2.3,0.7-3.5,1c5.2-1.1,10-2.6,14.6-4.1c12.1-5.1,23.2-12.5,32.7-21.4c9.5-9,17.3-19.6,23.1-31.3
			c5.7-11.7,9.3-24.4,10.5-37.3c1.3-12.9,0.1-26-3.1-38.5C321.7,354.6,319.8,376.9,312.1,396.1z"/>
		<path class="st50" d="M102,372.5c0.5,4.9,1.1,9.9,2.2,14.7c4.8,14.1,12.1,27.7,21.8,39.7c-3.5-5-6.5-10-9.2-15.3
			c-2.7-5.4-5.1-11.1-7.1-17.5c-1.2-3.5-2.6-5.9-3.6-8.4c-0.6-1.2-1.1-2.4-1.5-3.7c-0.4-1.3-0.8-2.8-1-4.5
			c-1.3-11.9-0.4-25.5,2.8-38.6s8.6-25.4,14.5-36.1c4.4-7.3,10.3-14.4,17-20.9c6.8-6.4,14.6-12.3,23-16.8c4.1-2.4,8.5-4.3,12.7-6
			c2.2-0.8,4.3-1.7,6.5-2.3c1.1-0.4,2.2-0.7,3.2-1c1.1-0.3,2.2-0.6,3.2-0.9c8.6-2.3,16.8-3.5,24.2-4c-18.2,0.3-35.2,4.9-49.7,12.5
			c-14.5,7.6-26.6,18-35.8,29.8c-9.3,11.8-15.8,25-19.6,38.5C101.9,345.1,100.8,359,102,372.5z"/>
		<path class="st50" d="M311.5,318.8c-0.3-1-0.7-2.1-1-3.1c2.6,5.7,4.6,11.6,6,17.7c3.3,12.5,4.4,25.6,3.1,38.5
			c-1.3,12.9-4.8,25.6-10.5,37.3c-5.7,11.7-13.6,22.3-23.1,31.3s-20.6,16.3-32.7,21.4c5.9-2,11.6-4.5,17.1-7.6
			c5.5-3.1,11-6.8,16.3-11.5l-1.3,1.2l-1.3,1.2c-0.9,0.8-1.8,1.5-2.7,2.3c-0.9,0.7-1.9,1.4-2.8,2.2l-1.4,1.1l-1.4,1
			c-1,0.7-1.9,1.3-2.9,2c-1,0.6-2,1.2-3,1.8c-1.9,1.2-4,2.2-6,3.3c-8.2,4.1-16.8,7-25.7,8.9c1.2-0.2,2.5-0.4,3.9-0.7
			c1.1-0.2,2.2-0.6,3.3-0.9l3.3-1l3.3-1.1l1.6-0.6l1.6-0.6l3.2-1.3c1.1-0.4,2.1-0.9,3.1-1.4c2.1-0.9,4.1-2,6.1-3.1
			c7.8-4.4,15.2-10.1,21.1-15.6c6-5.6,10.5-11,13.6-14.5c-8.9,12.1-20.8,22.6-34.7,30.1c-4.5,2.5-9,4.6-13.4,6.3
			c-1.1,0.4-2.2,0.8-3.2,1.1c-1.1,0.3-2.1,0.7-3.1,1c-1,0.3-2,0.5-3,0.8c-0.5,0.1-1,0.2-1.4,0.4c-0.5,0.1-0.9,0.2-1.4,0.3
			c-8.7,2.1-17.8,3.3-26.8,3.2l-3,0.1c6.1,0.6,12.5,0.5,19.1-0.4c6.7-0.9,13.6-2.5,20.8-5c-21.3,8-44.1,8.6-64.6,3.2
			c-15.4-3.1-30.1-9.6-42.8-18.8c-12.7-9.2-23.3-21.2-31-34.9c5.6,10.7,12.9,20.4,21.6,28.8c8.8,8.3,18.8,15.3,30,20.4
			c22.2,10.4,48.4,13,73.4,6.7c5.2-1.2,10.5-2.9,15.7-5.1s10.3-5,15.1-8c6.6-4.4,13.1-9.1,19-14.4c6-5.3,11.4-11.3,15.7-18.1
			c8.4-13.3,14.2-28.4,16.7-44.2c2.5-15.8,1.9-32.2-2.2-47.8c-4.1-15.6-11.5-30.5-21.6-43.2c-10.1-12.7-22.9-23.3-37.3-30.9
			c-4.8-2.5-10.6-4.5-16.7-6c-6.2-1.4-12.8-2.1-19.4-2.3c-1.8-0.1-3.3,0.1-4.7,0.2c-1.4,0.2-2.5,0.3-3.5,0.6
			c21.5,1.1,41.4,8.9,57.6,21.1C290.1,283.7,303.5,300,311.5,318.8z"/>
		<path class="st50" d="M307.8,315.3c-0.5-1.1-1-2.1-1.5-3.2s-1-2.1-1.6-3.1c-0.6-1-1.1-2.1-1.7-3.1s-1.2-2-1.8-3l-0.9-1.5l-1-1.4
			l-1.9-2.9l-2.1-2.8l-1-1.4l-1.1-1.3l-2.2-2.7l-2.3-2.6l-1.2-1.3l-1.2-1.2l-2.4-2.5c-3.4-3.1-6.8-6.2-10.5-9
			c-9-6.2-18.9-10.9-29.3-14.1c-5.2-1.5-10.5-2.8-15.9-3.5c-1.3-0.2-2.7-0.3-4-0.5c-1.3-0.1-2.7-0.3-4-0.3l-4-0.2h-4
			c0.3,0.6,1.4,1.2,3.3,1.5c3.4,1.5,9.8,1.7,17.1,2.7s15.5,2.8,22.1,5.7c7.1,3.2,14,7.2,20.3,12c6.3,4.8,12.1,10.3,17.2,16.4
			c10.3,12.2,17.6,26.8,21.6,42c1.3,4.7,2.3,9.5,2.9,14.4c-0.2-2.9-0.6-5.7-1.1-8.6l-0.8-4.2c-0.3-1.4-0.7-2.8-1-4.2
			C312.1,326,310.2,320.5,307.8,315.3z"/>
		<path class="st50" d="M215.8,251.2c-3,0.8-4.1,1.8-3.7,2.7h4l4,0.2c1.4,0,2.7,0.2,4,0.3c1.3,0.2,2.7,0.2,4,0.5
			c5.4,0.7,10.7,1.9,15.9,3.5c10.4,3.1,20.3,7.9,29.3,14.1C257.2,260.1,237.3,252.3,215.8,251.2z"/>
		<path class="st58" d="M103,341.6c0-0.1,0.1-0.3,0.1-0.4c-0.1,0.3-0.1,0.6-0.2,0.9c-0.5,2.6-0.7,5.3-1,8c-0.1,1.3-0.2,2.7-0.3,4
			l-0.1,2v2c-0.2,5.3,0.1,10.6,0.6,15.9c0.3,2.2,0.4,4.4,0.8,6.6l0.5,3.3l0.7,3.2c4.7,13.7,11.6,26.8,20.8,38.6h0.1
			c-3.1-4.6-5.8-9.2-8.3-14.1c-2.5-4.9-4.7-10.2-6.6-16.1c-1.4-3.5-2.7-7.9-3.8-12.2c-1-4.4-1.7-8.7-1.8-12.1
			c-0.3-5.9-0.1-11.3,0.2-16.5c0.1-1.3,0.2-2.6,0.3-3.8c0.2-1.3,0.3-2.5,0.4-3.8c0.1-1.2,0.3-2.5,0.5-3.7c0.2-1.2,0.3-2.5,0.6-3.7
			c0.9-4.9,2.1-9.8,3.5-14.9c1.5-5.1,3.5-10.4,6-16c0.6-1,1.2-2,1.7-3c0.6-1,1.2-1.9,1.8-2.9c1.2-2,2.6-3.8,3.8-5.6
			c2.7-3.6,5.5-7.1,8.5-10.2c3-3.2,6.2-6.2,9.4-9c3.3-2.7,6.7-5.4,10.3-7.7c14.1-9.5,30-15.7,47.1-18.5c-5.4,0.7-10.8,1.8-16.3,3.3
			s-10.9,3.5-16.3,5.9c-1.3,0.6-2.7,1.2-4,1.9c-1.3,0.7-2.6,1.4-4,2.1c-1.3,0.7-2.6,1.5-3.9,2.2c-1.3,0.7-2.5,1.6-3.8,2.4
			c-5,3.3-9.8,7.1-14.3,11.2c-8.9,8.2-16.4,18-22.1,28.5C108.4,319.6,104.6,330.7,103,341.6z"/>
		<path class="st59" d="M311.5,318.8c-0.3-1-0.7-2.1-1-3.1c2.6,5.7,4.6,11.6,6,17.7c3.3,12.5,4.4,25.6,3.1,38.5
			c-1.3,12.9-4.8,25.6-10.5,37.3c-5.7,11.7-13.6,22.3-23.1,31.3s-20.6,16.3-32.7,21.4c5.9-2,11.6-4.5,17.1-7.6
			c5.5-3.1,11-6.8,16.3-11.5l-1.3,1.2l-1.3,1.2c-0.9,0.8-1.8,1.5-2.7,2.3c-0.9,0.7-1.9,1.4-2.8,2.2l-1.4,1.1l-1.4,1
			c-1,0.7-1.9,1.3-2.9,2c-1,0.6-2,1.2-3,1.8c-1.9,1.2-4,2.2-6,3.3c-8.2,4.1-16.8,7-25.7,8.9c1.2-0.2,2.5-0.4,3.9-0.7
			c1.1-0.2,2.2-0.6,3.3-0.9l3.3-1l3.3-1.1l1.6-0.6l1.6-0.6l3.2-1.3c1.1-0.4,2.1-0.9,3.1-1.4c2.1-0.9,4.1-2,6.1-3.1
			c6.4-3.6,12.6-8.1,17.9-12.7s9.7-9.3,13.1-13.1c1.9-2.2,3.5-4.5,5.3-6.9c0.8-1.2,1.6-2.4,2.4-3.7c0.8-1.2,1.5-2.5,2.3-3.8
			c2.9-5.1,5.5-10.6,7.4-16.4c0.7-2.3,1.7-5.4,2.5-8.4c0.7-2.5,1.2-5.2,1.8-8c0.1-1.7,0.5-3.9,0.8-6.1c0.2-2.2,0.6-4.3,0.6-5.8
			c0.4-6.6,0.6-13.1,0.4-19.5c-0.1-0.6-0.1-1.3-0.2-1.9c-0.1-0.8-0.4-2.3-0.5-4.1c-0.1-0.9-0.1-1.8-0.2-2.7
			c-0.1-0.9-0.2-1.8-0.2-2.6l-0.4-2.5l-0.6-2.5c-0.4-1.7-0.7-3.3-1.2-4.9c-0.2-0.7-0.4-1.4-0.6-2.1c-0.4-1.4-0.9-2.8-1.3-4.2
			l-0.7-2.1l-0.8-2.1c-0.6-1-1-2.2-1.4-3.5c-5.2-12.8-12.9-24.6-22.3-34.7c-9.4-10.1-20.6-18.6-33-24.9c-9.7-5-23.1-7.7-36.3-7.8
			c-3.6,0.1-6.3,0.3-8.2,0.9c22.1,0.8,42.6,8.7,59.2,21.2C290.1,283.7,303.5,300,311.5,318.8z"/>
		<path class="st60" d="M273.4,272.3c-9.2-6.3-19.3-11.1-29.9-14.3c-5.3-1.5-10.7-2.7-16.2-3.4s-11-0.9-16.5-0.8
			c0.4,0.6,1.5,1.1,3.3,1.4c0.7,0.3,1.6,0.5,2.5,0.7c1,0.2,2,0.4,3.2,0.5c0.6,0.1,1.2,0.1,1.8,0.2s1.3,0.2,1.9,0.2
			c1.3,0.2,2.8,0.2,4.2,0.4c0.1-0.3-6.9-0.9-2.9-0.8c2.5-0.3,8.4,0.5,13.2,1.9c0.9,0.3,1.7,0.5,2.4,0.8c0.3,0.1,0.7,0.1,1,0.2
			c0.4-0.1,0.9-0.2,1.8,0.4c0.9,0.2,2.7,0.8,4.9,1.7c1.1,0.5,2.3,1,3.6,1.5s2.6,1.2,3.9,1.8c5.2,2.6,10,5.6,11.4,6.5
			c0,0-0.2-0.1-0.5-0.4c-0.3-0.3-0.9-0.6-1.5-1c-0.6-0.4-1.3-0.9-2.1-1.4c-0.4-0.3-0.8-0.5-1.2-0.8c-0.4-0.2-0.8-0.5-1.3-0.8
			c-1.7-1-3.4-2-4.8-2.7c-1.3-0.7-2.2-1.1-2.2-1.1c0.8,0.3,1.7,0.6,2.6,1c-0.1,0-0.2,0-0.3,0.1c0.9,0.4,1.8,0.8,2.7,1.3
			c1.1,0.2,1.6,0,3.6,0.9c-1.5-0.8-1.5-0.8-3-1.7c2.5,0.7,6.9,3.3,9.7,5.3c-0.5,0-1.4-0.5-2.4-1c-1-0.6-2.1-1.2-2.8-1.7l1.4,0.9
			c-0.7-0.4-1.9-1.1-2.8-1.6c-0.9-0.4-1.5-0.6-1-0.1c0.8,0.6,3,1.8,4.8,2.7c0.4,0.2,0.8,0.4,1.1,0.6c0.1,0.1,0.2,0.1,0.3,0.2
			c-0.1-0.1-0.2-0.1-0.3-0.2c-0.3-0.2-0.7-0.4-1.1-0.6c-0.6-0.3-1.1-0.5-1.2-0.4c1.5,0.8,2.9,1.7,4.3,2.7c0.2,0.1,0.5,0.2,0.8,0.4
			c-0.3-0.2-0.7-0.5-1.1-0.8l1.4,1l-0.3-0.2c1.5,1,2.5,1.7,3.6,2.3c1.1,0.6,2.2,1.1,3.5,2.1c-1.7-1.1,0.1,0.8-1.2,0.1
			c0.3,0.2,0.6,0.5,0.9,0.7c0.7,0.5,1.4,1,2.2,1.5c0.7,0.6,1.4,1.2,2.2,1.8c2,1.4,3.8,2.8,5.6,4.1c-0.1,0.6-1.3-0.4-2.7-1.5
			c1.3,1.3,2.7,2.7,3.9,4.2c0.6,0.4,0.9,0.4,1.5,0.9c0.6,0.4,1.4,1.2,2.9,2.9c-0.4-0.1-0.7,0-1.2-0.2c2.3,2.6,4.4,5.3,6.4,8.1
			c0.4,0.5,0.9,1.1,1.3,1.6c0,0,0.5,0.2,1.4,1.6c-0.4-0.5-0.9-1-1.4-1.6l0,0c0.8,1.2,1.6,2.6,2.4,4c3,4.9,5.7,10.1,7.9,15.4
			c0-0.1,0-0.2,0-0.4c-0.1-0.2-0.1-0.4-0.2-0.6c0.1,0.2,0.2,0.4,0.2,0.6c0.4,1.2,0.8,2,1.3,2.9c0.4,0.9,0.9,1.8,1.2,3.1
			c-0.1-0.5-0.3-1.1-0.5-1.6c0.6,2.1,1.2,4,1.9,5.7c0.6,1.8,1.2,3.5,1.8,5.2c-1.5-6.7-3.7-13.4-6.6-19.6c-0.5-1.1-1-2.1-1.5-3.2
			c-0.5-1.1-1-2.1-1.6-3.1c-0.6-1-1.1-2.1-1.7-3.1c-0.6-1-1.2-2-1.8-3l-0.9-1.5l-1-1.4l-1.9-2.9l-2.1-2.8l-1-1.4l-1.1-1.3l-2.2-2.7
			l-2.3-2.6l-1.2-1.3l-1.2-1.2l-2.4-2.5C280.5,278.1,277.1,275,273.4,272.3z"/>
		<path class="st61" d="M316.9,373v0.1C316.9,373.1,317,373,316.9,373c0-0.1,0-0.2,0-0.2c0-0.6,0.1-1.1,0.1-1.6
			c0,0.5-0.1,1.1-0.1,1.6v0.1c1.5-8.1,1.7-17.6,0.6-27c-1.1-9.4-3.4-18.8-6.1-27.2c-8-18.7-21.4-35-38.1-46.4
			c3.7,2.7,7.2,5.8,10.5,9l2.4,2.5l1.2,1.2l1.2,1.3l2.3,2.6l2.2,2.7l1.1,1.3l1,1.4l2.1,2.8l1.9,2.9l1,1.4l0.9,1.5c0.6,1,1.2,2,1.8,3
			c0.6,1,1.1,2.1,1.7,3.1s1.1,2.1,1.6,3.1c0.5,1.1,1,2.1,1.5,3.2c2.9,6.3,5.1,12.9,6.6,19.6c0.5,1.6,0.9,3.2,1.2,4.8
			c-0.3-0.8-0.4-1.3-0.6-1.7c0.2,0.9,0.4,1.8,0.5,2.6l0.4,2.7c0.1,0.9,0.3,1.8,0.4,2.7l0.2,2.7C317.6,356.7,317.7,364.9,316.9,373z"
			/>
		<path class="st62" d="M214.2,251.1c-3,0.8-4,1.9-3.5,2.7c5.5-0.1,11,0.1,16.5,0.8s10.9,1.9,16.2,3.4c10.6,3.2,20.8,7.9,29.9,14.3
			C256.8,259.8,236.3,252,214.2,251.1z"/>
		<path class="st62" d="M238.7,466c1.1-0.3,2.3-0.7,3.5-1s2.3-0.8,3.4-1.1c2.3-0.7,4.6-1.7,6.9-2.5c4.5-1.9,9.1-4,13.5-6.6
			c8.8-5,17-11.3,24.1-18.5l1.3-1.4l1.3-1.4c0.8-0.9,1.7-1.9,2.5-2.8c1.6-2,3.2-3.9,4.6-5.9c1.5-2,2.8-4.1,4.1-6.1
			c0.6-1,1.2-2.1,1.8-3.2l0.9-1.6l0.8-1.6c0.5-1.1,1.1-2.1,1.6-3.2c0.5-1.1,0.9-2.2,1.4-3.3c0.2-0.5,0.5-1.1,0.7-1.6
			s0.4-1.1,0.6-1.6c0.4-1.1,0.8-2.2,1.2-3.2c1.4-4.4,2.5-8.6,3.2-12.8c-1.6,5-3.7,10.3-6.2,15.6c-3.1,7.9-7.3,15.4-12.2,22.4
			s-10.7,13.3-17.2,18.8l-1.4,1.3l-1.5,1.2c-1,0.8-2,1.6-3,2.4l-3.1,2.2c-1,0.8-2.1,1.4-3.2,2.1s-2.2,1.4-3.3,2
			c-1.1,0.6-2.2,1.3-3.3,1.9c-2.3,1.2-4.6,2.4-6.9,3.4c-4,1.8-8.2,3.3-12.4,4.7c-4.2,1.2-8.5,2.3-12.8,3c0.5,0.5,1.7,0.8,3.6,0.9
			c6.9-1.4,13.7-3.6,20.2-6.3C248.6,463.4,243.9,464.9,238.7,466z"/>
		<path class="st51" d="M316.2,386.4c-0.6,4.2-1.8,8.5-3.2,12.8c-0.4,1.1-0.8,2.2-1.2,3.2c-0.2,0.5-0.4,1.1-0.6,1.6
			c-0.2,0.5-0.5,1.1-0.7,1.6c-0.5,1.1-0.9,2.2-1.4,3.3c-0.5,1.1-1.1,2.1-1.6,3.2l-0.8,1.6l-0.9,1.6c-0.6,1.1-1.2,2.1-1.8,3.2
			c-1.3,2.1-2.6,4.2-4.1,6.1c-1.4,2-3,4-4.6,5.9c-0.8,1-1.7,1.9-2.5,2.8l-1.3,1.4l-1.3,1.4c-7.1,7.3-15.3,13.5-24.1,18.5
			c-4.4,2.5-8.9,4.6-13.5,6.6c-2.3,0.9-4.6,1.8-6.9,2.5c-1.2,0.4-2.3,0.8-3.4,1.1c-1.2,0.3-2.3,0.7-3.5,1c5.2-1.1,10-2.6,14.6-4.1
			c12.1-5.1,23.2-12.5,32.7-21.4c9.5-9,17.3-19.6,23.1-31.3c5.7-11.7,9.3-24.4,10.5-37.3c1.3-12.9,0.1-26-3.1-38.5
			c5.2,21.2,3.2,43.5-4.5,62.7c-0.3,1-0.6,2-1,3l-1.1,2.9C312.5,396.8,314.5,391.5,316.2,386.4z"/>
		<rect x="120.1" y="312.2" class="st14" width="181.6" height="49.9"/>
		<text transform="matrix(0.9997 0 0 1 153.5345 330.4028)" class="st15 st16">Number of </text>
		<text transform="matrix(0.9997 0 0 1 167.1302 360.4028)" class="st15 st16">Patients</text>
		<text transform="matrix(0.9997 0 0 1 162.6116 405.2084)" class="st63 st18 st19">6,954</text>
	</g>
</g>
</svg>
